<svg width="47" height="45" viewBox="0 0 47 45" fill="none" xmlns="http://www.w3.org/2000/svg">
<g id="Group 211">
<path id="Ellipse 12" d="M44.3225 27.9612C45.0883 25.7602 45.5071 23.4021 45.5148 20.9487C45.542 12.3064 40.4615 4.81272 33.0493 1.19722" stroke="#B6B6B6" stroke-width="1.5"/>
<path id="Ellipse 13" d="M2.25466 27.9612C1.48882 25.7602 1.07009 23.4021 1.06236 20.9487C1.03509 12.298 6.12543 4.79825 13.5493 1.18676" stroke="#B6B6B6" stroke-width="1.5"/>
<path id="Vector" d="M5.54932 31.4128C5.63311 31.5124 5.58102 31.6506 5.66482 31.8046C5.72823 31.4739 5.81882 31.1931 5.99547 30.9463C6.5775 30.14 7.37921 29.8886 8.33039 30.0155C8.41419 30.0268 8.50024 30.0381 8.57951 30.0653C8.7788 30.1287 8.86939 30.0449 8.93281 29.8569C9.33366 28.6385 9.69602 27.4088 10.0448 26.1722C10.1535 25.7918 10.3483 25.6785 10.6563 25.8008C10.808 25.862 10.8895 25.9639 10.8737 26.1247C10.8578 26.2741 10.8352 26.4259 10.7921 26.5686C10.423 27.8164 10.0538 29.0643 9.6711 30.3076C9.6009 30.5386 9.72999 30.6451 9.86587 30.7583C10.3233 31.1365 10.7876 31.5079 11.2473 31.8839C12.151 32.6267 13.0501 33.3718 13.9537 34.1146C14.1643 34.289 14.3772 34.4611 14.5923 34.6287C14.7169 34.7238 14.8437 34.7555 14.966 34.6128C15.3963 34.1078 15.9783 33.9447 16.6079 33.9062C17.2375 33.8677 17.8649 33.8677 18.4967 33.8768C19.3052 33.8881 20.1182 33.8542 20.9245 33.7658C21.3842 33.716 21.844 33.6707 22.3014 33.6209C22.9605 33.5507 23.5991 33.3967 24.2264 33.1815C24.9693 32.9279 25.7234 32.7241 26.5093 32.6607C26.7335 32.6425 26.7901 32.5497 26.7539 32.3277C26.6497 31.6959 26.5568 31.0618 26.4821 30.4254C26.4481 30.1445 26.3326 30.0381 26.0473 30.0472C25.4335 30.0653 24.8198 30.0562 24.2083 30.054C23.7259 30.0517 23.5584 29.7731 23.7871 29.3496C24.0883 28.7902 24.4303 28.258 24.9693 27.8934C25.1414 27.7779 25.1618 27.6352 25.1142 27.4518C24.8062 26.2651 24.5027 25.0784 24.197 23.8894C23.889 22.6823 23.5833 21.4775 23.2753 20.2704C23.2549 20.1911 23.2685 20.0733 23.1711 20.0575C23.0737 20.0394 23.0488 20.1594 23.0035 20.2251C22.2607 21.2918 21.5201 22.363 20.775 23.4297C20.6731 23.5746 20.6754 23.7286 20.6754 23.8894C20.6754 25.7397 20.6754 27.5877 20.6754 29.438C20.6754 29.9724 20.5984 30.054 20.0526 30.0562C19.6744 30.0562 19.2962 30.0676 18.9202 30.0517C18.6666 30.0404 18.5397 30.1264 18.5035 30.3891C18.4107 31.0889 18.2974 31.7887 18.191 32.4863C18.1774 32.5701 18.1683 32.6584 18.1344 32.7331C18.046 32.9302 17.8807 33.0072 17.6701 32.9687C17.4708 32.9347 17.3915 32.8011 17.3825 32.6063C17.3598 32.2054 17.4799 31.8227 17.5251 31.4286C17.5659 31.0731 17.6271 30.7198 17.6701 30.3642C17.7086 30.0517 17.6384 29.986 17.3145 30.0245C16.7778 30.0857 16.2388 30.054 15.702 30.0472C15.2378 30.0404 15.0815 29.7437 15.2989 29.3383C15.308 29.3225 15.3193 29.3066 15.3284 29.2885C15.7405 28.5842 16.2863 28.0067 16.9929 27.5945C17.1922 27.479 17.2171 27.3159 17.2149 27.1166C17.2126 25.7397 17.2398 24.3605 17.2036 22.9835C17.1764 21.9599 17.5704 21.1446 18.2249 20.3995C18.9949 19.5208 19.7355 18.6149 20.4897 17.7226C20.7569 17.4055 21.0219 17.0862 21.2936 16.7737C21.4069 16.6446 21.4612 16.5132 21.4408 16.3366C21.3955 15.9334 21.3525 15.5303 21.3344 15.1272C21.3253 14.9279 21.2778 14.869 21.0853 14.9415C20.3719 15.211 19.6268 15.1725 18.8817 15.1793C17.7697 15.1906 16.6555 15.2042 15.548 15.2721C14.7033 15.3242 14.1349 15.0094 13.8608 14.2168C13.6094 13.4875 14.2662 12.6315 15.111 12.5545C16.2796 12.4503 17.4481 12.5205 18.6167 12.4979C18.8908 12.4933 19.1625 12.4752 19.4343 12.4345C19.7378 12.3892 19.9982 12.2623 20.1952 12.0359C20.4489 11.7437 20.6822 11.4357 20.9177 11.13C21.0241 10.9918 21.006 10.8242 20.9992 10.6657C20.972 10.1086 21.0785 9.58317 21.3231 9.07588C21.8598 7.97069 22.7906 7.47925 23.9592 7.3411C24.4122 7.28675 24.8628 7.32978 25.3135 7.36828C26.199 7.44302 26.8648 7.93899 27.5126 8.49384C28.3845 9.24347 29.2949 9.94779 30.1781 10.6861C30.7081 11.13 31.0206 11.7097 31.0274 12.4073C31.0432 14.0492 31.0251 15.6911 31.0342 17.333C31.0365 17.9332 30.7511 18.3544 30.2438 18.6013C29.7614 18.8368 29.2632 18.7893 28.8306 18.445C28.4343 18.1302 28.2531 17.6931 28.2803 17.2017C28.355 15.8542 28.3709 14.5089 28.3414 13.1592C28.3324 12.7062 28.1557 12.4594 27.8341 12.2148C27.3925 11.8773 26.9781 11.5037 26.55 11.1504C26.4889 11.1005 26.4345 10.9941 26.3417 11.0371C26.2488 11.0779 26.2873 11.1889 26.2851 11.2681C26.2828 12.2216 26.2851 13.175 26.2851 14.1262C26.2851 15.2201 26.2851 16.3162 26.2851 17.41C26.2851 17.5912 26.3055 17.7656 26.353 17.9422C26.9917 20.3383 27.6281 22.7344 28.2667 25.1305C28.6155 26.444 28.962 27.7553 29.3198 29.0665C29.5508 29.9158 29.4579 30.0494 28.586 30.0494C28.2373 30.0494 27.8885 30.054 27.5397 30.0494C27.3201 30.0449 27.2408 30.1061 27.2838 30.3506C27.4016 31.0097 27.499 31.671 27.5828 32.3368C27.6099 32.5587 27.6892 32.638 27.9134 32.6584C29.1205 32.7694 30.3095 32.9822 31.4124 33.5122C32.3681 33.9697 33.2536 34.5449 34.1165 35.1564C34.2705 35.2651 34.4267 35.3172 34.6147 35.324C35.8875 35.3738 37.158 35.4485 38.4308 35.4349C38.5598 35.4349 38.6912 35.4712 38.8203 35.4961C39.0377 35.5368 39.1623 35.6637 39.1328 35.8901C39.1056 36.1098 38.9766 36.2502 38.7501 36.2819C38.6754 36.2933 38.5984 36.2887 38.5236 36.2865C37.1127 36.2298 35.6995 36.171 34.2886 36.1189C33.9919 36.1076 33.7836 35.9286 33.5594 35.7746C32.8346 35.2787 32.0986 34.8053 31.3241 34.3886C30.3231 33.8519 29.2405 33.6345 28.1263 33.5099C26.9124 33.3718 25.7438 33.5462 24.5956 33.947C23.3455 34.3818 22.0501 34.5494 20.732 34.5947C19.3279 34.6445 17.926 34.6921 16.5241 34.7578C15.9693 34.785 15.4982 35.0273 15.2967 35.5663C15.1064 36.0713 15.24 36.556 15.6115 36.9546C16.0168 37.3894 16.5196 37.6226 17.1175 37.6272C18.4763 37.6362 19.8352 37.6159 21.194 37.6498C22.4305 37.6815 23.6625 37.6498 24.8945 37.5796C25.1957 37.5638 25.4947 37.5139 25.7936 37.4822C26.0133 37.4596 26.2398 37.4483 26.387 37.6521C26.5931 37.942 26.387 38.2862 25.9884 38.3179C25.3973 38.3632 24.804 38.4244 24.2106 38.4312C22.7861 38.4493 21.3616 38.567 19.9393 38.4832C18.9859 38.4266 18.0347 38.4606 17.0835 38.4357C15.9081 38.4062 14.8958 37.7314 14.5176 36.7168C14.3998 36.4042 14.3998 36.0691 14.4134 35.7407C14.4202 35.6025 14.3862 35.5074 14.2821 35.4213C13.2222 34.5585 12.1646 33.6934 11.1069 32.826C10.4366 32.2757 9.77755 31.7095 9.09134 31.1818C8.51836 30.7424 7.87065 30.6315 7.20256 30.9598C6.46653 31.3199 6.20156 32.1352 6.54353 32.8826C6.71565 33.2608 6.99194 33.5575 7.25918 33.861C8.21263 34.9344 9.24307 35.9264 10.3143 36.8821C11.9517 38.3406 13.7046 39.645 15.5254 40.8635C16.4041 41.4523 17.2715 42.057 18.2227 42.5235C19.2101 43.0104 20.2564 43.1712 21.3548 43.0444C23.4451 42.8043 25.506 42.3786 27.5873 42.0864C28.509 41.9573 29.3742 41.6199 30.2823 41.441C31.1067 41.2779 31.9355 41.1737 32.778 41.133C35.3779 41.0061 37.8601 41.527 40.2765 42.442C40.4667 42.5144 40.6502 42.5982 40.6592 42.8428C40.6751 43.2188 40.4169 43.3796 40.0206 43.2256C39.1487 42.8881 38.2609 42.605 37.3505 42.3876C36.3019 42.1385 35.2443 41.9913 34.164 41.9369C32.4859 41.8531 30.8598 42.0841 29.2587 42.5733C28.4094 42.8315 27.5216 42.9176 26.6474 43.058C25.1572 43.298 23.6761 43.5902 22.1791 43.7736C21.2212 43.8914 20.2632 43.9503 19.3052 43.7623C18.6983 43.6423 18.1208 43.4294 17.5863 43.1327C16.3566 42.4488 15.1993 41.6493 14.0443 40.8476C12.8893 40.0459 11.7728 39.1921 10.6925 38.2907C9.65752 37.4256 8.64972 36.5288 7.70986 35.564C7.19124 35.0318 6.71112 34.4611 6.22194 33.8995C5.94791 33.5847 5.75314 33.22 5.68293 32.7399C5.61952 32.8667 5.59008 32.9302 5.55838 32.9936C5.55838 32.4659 5.55838 31.9359 5.55838 31.4083L5.54932 31.4128ZM25.472 13.8907C25.472 12.636 25.472 11.3814 25.472 10.1267C25.472 9.95912 25.4879 9.79832 25.6577 9.71453C25.8344 9.62847 26.0088 9.66017 26.1628 9.77568C26.2828 9.86626 26.4006 9.96138 26.5161 10.0565C27.277 10.6906 28.0312 11.3293 28.7966 11.9566C29.0095 12.131 29.1205 12.3167 29.1182 12.6043C29.1069 13.9903 29.1092 15.3786 29.1137 16.7646C29.1137 16.9911 29.1477 17.2153 29.1545 17.4417C29.1658 17.7384 29.3674 17.8494 29.6097 17.9015C29.8543 17.9536 30.0241 17.8222 30.1396 17.6161C30.2325 17.4531 30.2302 17.2719 30.2302 17.093C30.2302 15.6504 30.2212 14.2055 30.2325 12.7628C30.237 12.0766 29.9675 11.5512 29.4376 11.1254C28.5996 10.4528 27.773 9.76662 26.9441 9.08041C26.4685 8.68635 25.9725 8.33984 25.3543 8.19264C25.0576 8.12243 24.7722 8.21076 24.4824 8.17905C22.9831 8.01146 21.7941 9.08041 21.7941 10.5842C21.7941 10.9737 21.8734 11.3542 21.8961 11.7392C21.9866 13.2543 22.084 14.7671 22.238 16.2754C22.2675 16.5698 22.2901 16.8574 22.0614 17.1269C21.0377 18.3227 20.0571 19.557 19.0153 20.7369C18.311 21.5341 17.9351 22.3924 17.9826 23.4795C18.0415 24.8632 17.9939 26.2515 18.003 27.6375C18.003 27.8866 17.9237 28.0429 17.6905 28.1448C17.2624 28.3328 16.8888 28.6023 16.5808 28.9578C16.5219 29.0258 16.4086 29.0801 16.463 29.1888C16.5128 29.2908 16.6306 29.2545 16.7212 29.2545C17.6452 29.2545 18.5714 29.2545 19.4955 29.2545C19.8646 29.2545 19.8737 29.2455 19.8737 28.8695C19.8737 27.3227 19.8918 25.7736 19.8623 24.2268C19.851 23.5905 19.9665 23.0515 20.3628 22.5215C21.2642 21.3121 22.0999 20.053 22.9627 18.8164C23.0828 18.6443 23.239 18.5311 23.4655 18.5673C23.6897 18.6035 23.7622 18.7757 23.8097 18.9682C23.9524 19.5366 24.0928 20.1028 24.2355 20.6712C24.4937 21.7039 24.7473 22.7389 25.01 23.7716C25.3452 25.0874 25.6872 26.401 26.0246 27.7168C26.0948 27.9908 26.002 28.1924 25.7619 28.3396C25.4788 28.514 25.2342 28.7359 25.0078 28.9782C24.9512 29.0371 24.8583 29.0915 24.9036 29.1888C24.9466 29.2817 25.0508 29.2568 25.1323 29.2568C26.1515 29.2568 27.1706 29.2545 28.1897 29.2568C28.4139 29.2568 28.4932 29.2002 28.4252 28.9556C28.1716 28.0565 27.9383 27.1529 27.6983 26.2515C27.0392 23.783 26.3802 21.3121 25.7234 18.8436C25.5604 18.2321 25.4426 17.6207 25.463 16.9752C25.4947 15.947 25.472 14.9188 25.472 13.8907ZM17.6361 14.475C17.6361 14.4365 17.6361 14.398 17.6361 14.3572C18.4265 14.3572 19.2192 14.3595 20.0095 14.3549C20.159 14.3549 20.3108 14.3255 20.458 14.2983C20.9449 14.2032 21.2574 13.8295 21.2212 13.372C21.1985 13.1003 21.1668 12.8285 21.1713 12.5545C21.1713 12.4911 21.1781 12.4141 21.1057 12.3801C21.0287 12.3439 20.9856 12.4073 20.9449 12.4594C20.4376 13.1207 19.7378 13.32 18.9429 13.295C17.7267 13.2565 16.5128 13.363 15.2989 13.3562C15.2333 13.3562 15.1676 13.363 15.1019 13.3766C14.8618 13.4241 14.7237 13.5736 14.6829 13.8137C14.6399 14.0583 14.7418 14.2372 14.9456 14.3617C15.1042 14.4591 15.2808 14.4772 15.462 14.4772C16.1867 14.4772 16.9114 14.4772 17.6361 14.4772V14.475Z" fill="#B6B6B6" stroke="#B6B6B6" stroke-width="0.3"/>
<path id="Vector_2" d="M20.4917 3.89884C20.4962 2.29995 21.8505 1 23.4992 1C25.2068 1 26.5 2.4381 26.4841 3.96905C26.4638 5.74006 25.1638 7.01509 23.4404 6.99244C21.812 6.9698 20.4962 5.72647 20.4917 3.89884ZM25.6507 4.00302C25.6598 2.81177 24.6882 1.8153 23.5242 1.80171C22.2061 1.78812 21.307 2.92501 21.2934 3.91469C21.2753 5.13311 22.2854 6.15676 23.5151 6.15676C24.5908 6.15676 25.6847 5.23049 25.653 4.00302H25.6507Z" fill="#B6B6B6" stroke="#B6B6B6" stroke-width="0.3"/>
<path id="Vector_3" d="M32.5039 32.3349C32.5198 32.6157 32.4224 32.7674 32.2118 32.8173C31.9672 32.8761 31.8041 32.7425 31.7316 32.5251C31.5822 32.079 31.4531 31.626 31.3172 31.1753C30.8416 29.5878 30.3706 27.9979 29.895 26.4104C29.7817 26.0344 29.8836 25.7989 30.1916 25.7581C30.4249 25.7287 30.5925 25.8012 30.665 26.0503C31.1292 27.631 31.598 29.2118 32.0646 30.7926C32.1959 31.2342 32.325 31.6781 32.4541 32.1197C32.4813 32.2103 32.4971 32.3032 32.5039 32.3349Z" fill="#B6B6B6" stroke="#B6B6B6" stroke-width="0.3"/>
<path id="Vector_4" d="M15.106 26.1613C15.0517 26.5531 14.9113 26.9154 14.8048 27.2846C14.3202 28.9378 13.8355 30.5911 13.3486 32.2443C13.3146 32.3598 13.2626 32.4731 13.2037 32.5795C13.1063 32.7584 12.9591 32.892 12.7462 32.806C12.522 32.7154 12.4065 32.5342 12.4699 32.2828C12.5628 31.9182 12.6647 31.5558 12.7711 31.1935C13.2761 29.4972 13.788 27.8009 14.293 26.1047C14.3632 25.8691 14.4946 25.7151 14.7573 25.7514C14.9883 25.7831 15.0902 25.9416 15.1083 26.1568L15.106 26.1613Z" fill="#B6B6B6" stroke="#B6B6B6" stroke-width="0.3"/>
<path id="Vector_5" d="M34.0824 26.2331C34.0665 25.9522 34.1526 25.8005 34.3745 25.7552C34.6123 25.7054 34.8139 25.8254 34.8954 26.0791C35.02 26.4731 35.1287 26.874 35.2465 27.2703C35.7175 28.8692 36.1909 30.4681 36.6642 32.067C36.6823 32.1304 36.7049 32.1915 36.7208 32.2572C36.7842 32.5177 36.6823 32.7577 36.4785 32.8189C36.2611 32.8846 36.0414 32.7736 35.9553 32.5063C35.7606 31.9062 35.5884 31.2992 35.4073 30.6946C34.9792 29.2701 34.5489 27.8456 34.1209 26.4188C34.096 26.3373 34.0869 26.2535 34.0847 26.2331H34.0824Z" fill="#B6B6B6" stroke="#B6B6B6" stroke-width="0.3"/>
<path id="Vector_6" d="M22.0298 28.4233C22.0071 27.5808 21.9369 26.8765 21.9573 26.1676C21.9641 25.9343 21.9913 25.7532 22.2811 25.7464C22.5461 25.7396 22.6843 25.8596 22.7069 26.1585C22.7499 26.7021 22.793 27.2479 22.8201 27.7914C22.8836 29.08 22.9379 30.3664 22.9991 31.655C23.0104 31.8815 23.0443 32.1057 23.0511 32.3299C23.0579 32.6085 22.879 32.8191 22.6571 32.8236C22.4442 32.8281 22.2608 32.6356 22.2494 32.3684C22.2223 31.6641 22.1634 30.9575 22.143 30.2532C22.1226 29.5941 22.0071 28.9419 22.032 28.4187L22.0298 28.4233Z" fill="#B6B6B6" stroke="#B6B6B6" stroke-width="0.3"/>
<path id="Vector_7" d="M39.359 29.8343C39.3703 30.0653 39.2797 30.2171 39.0396 30.2578C38.8109 30.2963 38.6161 30.1808 38.555 29.9294C38.4395 29.4538 38.3399 28.9737 38.2402 28.4959C38.0658 27.6738 37.8258 26.8721 37.5925 26.0658C37.554 25.9299 37.5223 25.7918 37.5313 25.6491C37.5404 25.4611 37.6514 25.357 37.8212 25.3139C38.0024 25.2709 38.1677 25.3026 38.2538 25.4861C38.324 25.6287 38.3783 25.7805 38.4214 25.9345C38.7701 27.1665 39.0895 28.4075 39.3386 29.6645C39.3499 29.7188 39.3522 29.7754 39.359 29.832V29.8343Z" fill="#B6B6B6" stroke="#B6B6B6" stroke-width="0.3"/>
</g>
</svg>
