<svg width="48" height="48" viewBox="0 0 48 48" fill="none" xmlns="http://www.w3.org/2000/svg">
<g id="Group 216">
<path id="Vector" d="M9.14797 24.1012C9.05611 16.186 15.5107 9.24296 23.9005 9.2598C32.0729 9.27664 38.5995 15.843 38.6301 24.0782C38.6623 32.3532 32.001 38.9961 23.7888 38.9502C15.5398 38.9043 9.05458 32.0608 9.14797 24.0996V24.1012ZM37.5814 24.1042C37.6228 16.5549 31.5019 10.3652 23.9939 10.3085C16.3757 10.2519 10.3268 16.408 10.1707 23.7919C10.0038 31.6566 16.3528 37.926 23.9128 37.903C31.4697 37.88 37.6273 31.6642 37.5829 24.1042H37.5814Z" fill="#B6B6B6"/>
<path id="Vector_2" d="M34.4597 18.7662C34.4627 18.9729 34.3954 19.3725 34.2607 19.7629C34.23 19.8502 34.1657 19.9129 34.1213 19.988C33.8504 20.4503 33.4523 20.7963 33.0803 21.1699C32.6439 21.6077 32.2137 22.0517 31.7636 22.4758C31.4727 22.7499 31.1987 23.0423 30.9185 23.3301C30.3658 23.895 29.8024 24.4492 29.2344 25.0004C28.7843 25.4383 28.348 25.896 27.9071 26.3446C27.5412 26.7166 27.1569 27.0703 26.791 27.4393C26.3516 27.8817 25.9137 28.3272 25.4912 28.7865C25.2921 29.0024 25.0579 29.1785 24.8558 29.3897C24.2924 29.9792 23.7076 30.5487 23.1319 31.1259C22.7446 31.5132 22.3542 31.8975 21.973 32.291C21.8444 32.4226 21.7005 32.5114 21.5213 32.5084C21.0942 32.5022 20.6992 32.4793 20.3685 32.0996C19.8587 31.5163 19.306 30.9667 18.7135 30.4599C18.7089 30.4553 18.7043 30.4522 18.6997 30.4476C18.2557 29.9945 17.8133 29.5398 17.3647 29.0897C17.1397 28.8646 16.9085 28.6457 16.6712 28.4329C16.5288 28.3043 16.3833 28.1864 16.2991 28.0042C16.244 27.8848 16.0986 27.8542 16.0098 27.7608C15.7832 27.5219 15.5367 27.3015 15.3193 27.055C15.0483 26.7488 14.7329 26.4916 14.4528 26.1946C14.3931 26.1303 14.315 26.0813 14.2415 26.0323C14.1588 25.9787 14.0869 25.9175 14.0547 25.8225C14.0195 25.7154 13.9598 25.6312 13.8695 25.5623C13.8297 25.5332 13.796 25.4903 13.7746 25.4444C13.3597 24.5488 13.251 23.6501 13.6689 22.7146C13.8358 22.3426 14.1022 22.0747 14.3931 21.819C14.687 21.5603 15.0315 21.3796 15.3943 21.2327C15.4173 21.2235 15.4464 21.2082 15.4678 21.2127C15.7771 21.2893 16.0848 21.1607 16.4002 21.2173C16.6513 21.2617 16.9146 21.1928 17.1611 21.3337C17.2866 21.4057 17.429 21.4439 17.5346 21.5542C17.5729 21.594 17.625 21.6292 17.6786 21.646C17.974 21.7409 18.1991 21.9292 18.4104 22.1497C18.7671 22.5202 19.1269 22.8876 19.4974 23.2428C19.9766 23.7006 20.4007 24.2135 20.9151 24.6345C20.9885 24.6942 21.0406 24.7784 21.108 24.8458C21.2335 24.9713 21.3499 24.9698 21.4693 24.8366C21.6698 24.6131 21.9041 24.4248 22.1276 24.2257C22.345 24.0328 22.5287 23.8001 22.7308 23.5904C22.9467 23.3653 23.184 23.1602 23.383 22.9213C23.8102 22.4115 24.3904 22.0471 24.7609 21.4853C24.8344 21.3735 24.9661 21.3459 25.0625 21.2587C25.4039 20.9509 25.6657 20.5713 25.9979 20.2559C26.5414 19.7384 27.0911 19.2255 27.6024 18.679C28.0204 18.2319 28.4858 17.8339 28.8915 17.3746C29.1349 17.099 29.4243 16.8648 29.66 16.5785C29.7397 16.482 29.856 16.4345 29.9617 16.3794C30.3322 16.1865 30.6659 15.9247 31.0885 15.8252C31.4482 15.7395 31.8034 15.7226 32.1418 15.8512C32.4725 15.9768 32.8169 16.0656 33.1339 16.2447C33.4217 16.407 33.5993 16.6489 33.806 16.8801C34.2331 17.3608 34.4689 17.9104 34.4612 18.7632L34.4597 18.7662ZM32.5766 18.6361C32.5475 18.4876 32.5858 18.287 32.4495 18.1385C31.8585 17.4848 31.4054 17.5307 30.868 18.0849C30.3842 18.5825 29.9188 19.0985 29.4044 19.5639C28.6879 20.2145 28.0632 20.9555 27.3483 21.6077C26.866 22.0487 26.4205 22.5325 25.9688 23.0071C25.6795 23.3117 25.3565 23.5812 25.064 23.8828C24.4486 24.5181 23.8316 25.1535 23.1993 25.7736C23.0768 25.8945 22.939 25.994 22.8273 26.1287C22.541 26.4701 22.2317 26.7917 21.8719 27.0611C21.6132 27.2555 20.9227 27.2693 20.6885 27.0703C20.5139 26.9218 20.3364 26.7718 20.1863 26.6003C19.7546 26.1073 19.257 25.6786 18.8054 25.2056C18.2328 24.6085 17.6479 24.0236 17.0616 23.4388C16.8916 23.2689 16.7202 23.1127 16.4691 23.0407C16.12 22.9397 15.6959 23.1066 15.4755 23.4082C15.2918 23.6577 15.3071 24.2533 15.5 24.4982C15.7403 24.8029 15.9884 25.0999 16.2823 25.3587C17.0555 26.0415 17.7184 26.8361 18.4854 27.5281C18.888 27.8909 19.2815 28.2736 19.6398 28.6931C20.0776 29.206 20.5859 29.6577 21.1003 30.0971C21.2243 30.2027 21.3499 30.2119 21.4601 30.1032C21.6499 29.9149 21.8612 29.7526 22.0434 29.5535C22.3481 29.2213 22.6711 28.9029 23.0018 28.5967C23.3111 28.3104 23.605 28.0103 23.8974 27.7072C23.9969 27.6031 24.0444 27.4423 24.1776 27.375C24.3935 27.2663 24.5328 27.0887 24.6675 26.9034C24.7594 26.7779 24.8711 26.6722 24.9997 26.5911C25.2034 26.461 25.3473 26.2742 25.4988 26.0951C25.5769 26.0017 25.6581 25.9113 25.756 25.8394C26.0745 25.6021 26.3179 25.2867 26.5858 25.0019C27.0007 24.561 27.4769 24.1829 27.8719 23.7205C28.1214 23.4281 28.4521 23.2107 28.6787 22.8922C28.7537 22.7881 28.841 22.6947 28.9466 22.6213C29.3707 22.3227 29.6922 21.9109 30.0658 21.5572C30.4454 21.199 30.7823 20.7871 31.1635 20.4289C31.5677 20.0477 31.9443 19.6435 32.3347 19.2516C32.5016 19.0847 32.5735 18.8964 32.5735 18.6392L32.5766 18.6361Z" fill="#B6B6B6"/>
<path id="Vector_3" d="M24.1147 48C23.6648 48 23.2165 47.8625 22.8142 47.5844C22.3495 47.2635 21.9101 46.8938 21.5078 46.4841C21.3177 46.2903 21.1218 46.0907 20.9243 45.9117C20.7239 45.7298 20.4908 45.5627 20.2444 45.3852L20.1627 45.3261C20.0722 45.261 20.0009 45.1944 19.9445 45.1427C19.9237 45.1235 19.9029 45.1027 19.8792 45.085C19.4902 44.8336 19.1458 44.6532 18.8014 44.5215C18.5282 44.418 18.2179 44.4032 17.8587 44.3884C17.7072 44.381 17.5499 44.3751 17.3866 44.3603C16.956 44.5422 16.5344 44.5866 16.2123 44.6029C16.0237 44.6132 15.9124 44.6354 15.8441 44.6798C15.6541 44.801 15.424 44.8691 15.1419 44.8883C14.7648 44.9134 14.3818 44.983 13.9765 45.0569L13.7835 45.0924C12.5958 45.3039 11.6145 44.838 11.0192 43.7761L10.9999 43.7406C10.9346 43.6253 10.847 43.4715 10.7921 43.2733C10.6421 43.1106 10.5516 42.9065 10.5397 42.698C10.5338 42.5871 10.4788 42.4421 10.4165 42.2735C10.3363 42.0561 10.2443 41.8091 10.2071 41.5134C10.1878 41.3669 10.1166 41.1821 10.0424 40.9854C10.0052 40.8892 9.96813 40.7916 9.93399 40.6955C9.89836 40.6275 9.84937 40.5299 9.82116 40.3997C9.71575 39.9161 9.40548 39.4709 9.0759 39.0006L9.06254 38.9814C8.99128 38.8779 8.81758 38.7729 8.63647 38.6605C8.59193 38.6324 8.54739 38.6058 8.50285 38.5777C8.29353 38.4445 8.07381 38.3218 7.84222 38.1917C7.73236 38.1295 7.6225 38.0689 7.51413 38.0053C7.51413 38.0053 7.50819 38.0053 7.50076 38.0053C7.19197 37.9802 6.91287 37.8722 6.69315 37.6903C6.23442 37.6548 5.83358 37.5158 5.48025 37.393C5.30953 37.3339 5.14919 37.2777 4.9948 37.2377C4.55685 37.1239 4.1768 36.905 3.86355 36.7053C3.11235 36.2276 2.57048 35.0326 2.96093 34.0166C3.03367 33.8288 3.07375 33.5921 3.11532 33.3422C3.15838 33.0908 3.20291 32.8305 3.28605 32.5598C3.37067 32.2833 3.41966 31.9845 3.47014 31.6695C3.50131 31.4728 3.53546 31.2702 3.57851 31.0617C3.60078 30.9552 3.62899 30.8487 3.65719 30.7437C3.70321 30.5751 3.74181 30.4302 3.73142 30.334C3.71955 30.2142 3.71955 30.1078 3.71955 30.0116C3.71955 29.9613 3.71955 29.8948 3.71658 29.8608C3.66758 29.741 3.62156 29.6197 3.57703 29.4969C3.48201 29.2426 3.39294 29.0015 3.26823 28.8152C3.09751 28.5593 2.88373 28.3197 2.6551 28.0653C2.58384 27.9855 2.51258 27.9056 2.44132 27.8243C2.29287 27.6542 2.11769 27.49 1.9336 27.3155C1.71833 27.1129 1.49565 26.9029 1.28781 26.6589C1.221 26.5805 1.15123 26.5036 1.08294 26.4252C0.787505 26.0939 0.453475 25.7197 0.223365 25.2361C0.131322 25.0453 0.0749076 24.8398 0.0556081 24.6401L0.0407624 24.4848C-0.0111979 23.945 -0.0765193 23.2721 0.287202 22.5918C0.405968 22.3699 0.552942 22.1969 0.671708 22.0593C0.699915 22.0268 0.726637 21.9958 0.75336 21.9632C0.808289 21.8952 0.863218 21.8272 0.916663 21.7591C1.12896 21.4914 1.37094 21.1868 1.67974 20.922C2.30623 20.3867 3.00101 19.7271 3.40927 18.8959C3.71361 18.2762 3.80417 17.7911 3.69282 17.3667C3.60226 17.0206 3.5503 16.6878 3.49983 16.3654C3.47756 16.2205 3.45381 16.0755 3.42857 15.9306C3.40036 15.7798 3.35434 15.6171 3.30535 15.444C3.2519 15.2547 3.19697 15.0595 3.15541 14.848L3.11978 14.6646C3.04258 14.2727 2.9639 13.8675 2.89857 13.4593C2.76496 12.6252 3.31574 11.692 3.92739 11.2719C4.4752 10.8948 5.07051 10.7188 5.59457 10.562C5.76975 10.5103 5.93602 10.4615 6.09487 10.4068C6.59369 10.2367 7.07766 10.0991 7.53342 10.0015C7.71009 9.96308 7.92535 9.84624 8.15398 9.72349C8.23266 9.6806 8.30986 9.63919 8.38854 9.59778C8.50434 9.53862 8.63053 9.44841 8.76562 9.35375L8.88884 9.26797C9.05957 9.15114 9.20061 8.97662 9.33422 8.72077C9.40696 8.58027 9.48713 8.46343 9.55839 8.36138C9.61777 8.27413 9.67567 8.1913 9.69645 8.13658C9.71575 8.08778 9.73654 8.04489 9.75435 8.01235C9.8271 7.73727 9.91469 7.47993 10.0008 7.22851C10.0943 6.95787 10.1819 6.70349 10.2398 6.45207C10.2843 6.26128 10.3393 6.08529 10.3927 5.91521C10.4551 5.71555 10.5145 5.52773 10.5412 5.35469C10.5724 5.15651 10.6674 4.96869 10.8069 4.82523L10.8099 4.81636C11.0593 4.01921 11.5433 3.42911 12.2069 3.1067C12.6775 2.87894 13.2342 2.82422 13.8637 2.94254C14.0789 2.98395 14.2957 3.01944 14.5124 3.05642C15.0469 3.14663 15.5991 3.2398 16.1529 3.39657C16.2301 3.41876 16.3414 3.43207 16.4587 3.44538C16.5374 3.45425 16.6161 3.4646 16.6933 3.47644C16.9694 3.51932 17.2381 3.57257 17.4979 3.62285L17.7072 3.66426C17.9849 3.7175 18.2328 3.69384 18.4436 3.59327L18.4584 3.58588C18.5356 3.54742 18.6811 3.47644 18.8756 3.45869C19.0909 3.43946 19.3269 3.32115 19.5986 3.18508L19.6253 3.17177C19.9579 3.00465 20.2785 2.75619 20.6022 2.41012C20.718 2.28589 20.8367 2.19419 20.9317 2.11877C20.9703 2.08919 21.0089 2.05813 21.046 2.02559C21.1158 1.96348 21.1871 1.8777 21.2717 1.77861C21.3949 1.63219 21.536 1.46507 21.723 1.30978C21.8284 1.22253 21.9383 1.13971 22.0481 1.05689C22.1966 0.944486 22.3361 0.839481 22.4475 0.730039C22.6806 0.500803 22.9374 0.367698 23.1452 0.261214C23.1987 0.233114 23.2536 0.205014 23.3056 0.175436C23.4095 0.116278 23.6856 -0.04049 24.0479 0.00979408C24.0865 0.0157098 24.1251 0.0201467 24.1637 0.0245835C24.4457 0.0585992 24.8703 0.110362 25.2548 0.415024C25.2682 0.422419 25.283 0.428335 25.2964 0.43573C25.3662 0.469745 25.4612 0.515592 25.5636 0.586582C25.7893 0.744829 25.9793 0.923781 26.1471 1.08203C26.2257 1.15597 26.3044 1.2314 26.3876 1.30091C26.6711 1.54494 26.9205 1.80671 27.161 2.05961C27.259 2.16166 27.3555 2.26518 27.455 2.36575L27.4654 2.3761C27.7029 2.53583 27.9107 2.71922 28.0948 2.88042C28.1884 2.96176 28.2804 3.04458 28.3769 3.12149C28.4452 3.17621 28.5046 3.21466 28.5639 3.24128C28.702 3.30488 28.8252 3.37439 28.9336 3.4365C29.0331 3.4927 29.1266 3.54595 29.2083 3.58144C29.523 3.71602 29.7932 3.76483 30.0574 3.73673L30.1688 3.72342C30.3469 3.70271 30.5488 3.67757 30.7745 3.68792C30.8843 3.69236 31.0373 3.64503 31.2154 3.58884C31.3431 3.5489 31.4871 3.50306 31.643 3.46904C31.6623 3.4646 31.6816 3.46017 31.7023 3.45425C31.7914 3.43207 31.9146 3.40101 32.0616 3.39214C32.1091 3.38918 32.216 3.34925 32.3095 3.31227C32.4921 3.24276 32.7178 3.15698 32.9954 3.13184C33.1765 3.11557 33.368 3.08156 33.5714 3.04606C34.0005 2.97064 34.4859 2.88486 35.0174 2.94697C35.6216 3.01796 36.0922 3.27234 36.456 3.72786C36.6415 3.96005 36.7633 4.19372 36.8702 4.3993C36.9058 4.46881 36.9414 4.53832 36.9815 4.60635C37.1285 4.86516 37.1834 5.11658 37.2265 5.31772C37.2398 5.37836 37.2517 5.43899 37.2695 5.49815C37.3141 5.65048 37.3705 5.80577 37.4284 5.97141C37.5174 6.21987 37.608 6.47573 37.6778 6.75969C37.7312 6.97561 37.8144 7.20781 37.9034 7.45331C37.9346 7.53909 37.9658 7.62487 37.9955 7.70917C38.0504 7.86742 38.1528 8.03601 38.2597 8.21497C38.2894 8.26377 38.3176 8.31258 38.3458 8.3599C38.5077 8.63647 38.6472 8.85979 38.8298 8.99881C39.0866 9.19403 39.3524 9.35523 39.6656 9.50756C39.826 9.58595 40.0056 9.65398 40.1956 9.72497C40.4435 9.81814 40.6989 9.91575 40.9572 10.0503C41.5392 10.1228 42.0617 10.3136 42.5249 10.4837C43.0074 10.6597 43.475 10.8638 43.9175 11.09C44.9596 11.6254 45.0457 12.64 45.0739 12.9727C45.0843 13.1014 45.0828 13.2168 45.0799 13.3277C45.0799 13.3706 45.0784 13.4149 45.0784 13.4637V13.5037C45.0754 13.5392 45.0754 13.5747 45.0754 13.6116C45.0725 13.8335 45.068 14.1603 44.9002 14.5108C44.9002 14.5271 44.9002 14.5434 44.9002 14.5596C44.8973 14.6617 44.8943 14.8022 44.8587 14.9575C44.829 15.0906 44.7948 15.2237 44.7607 15.3568C44.6909 15.6245 44.6256 15.8774 44.6122 16.1081C44.5974 16.3669 44.4935 16.5547 44.4385 16.6568L44.4252 16.6804C44.3836 16.7899 44.3673 16.9333 44.3539 17.1138C44.3198 17.5944 44.3168 18.0322 44.348 18.4552C44.3599 18.6238 44.4593 18.8264 44.5751 19.0601C44.6241 19.1606 44.6746 19.2597 44.7191 19.3618C44.7622 19.4564 44.8513 19.5658 44.9567 19.693C45.0873 19.8513 45.2343 20.0302 45.3575 20.261C45.3991 20.3379 45.4733 20.4162 45.5535 20.4665C45.7806 20.6115 45.9187 20.7889 46.0181 20.9191C46.0448 20.9546 46.079 20.9989 46.0953 21.0137C46.1503 21.0685 46.2052 21.1217 46.2616 21.1749C46.5526 21.4559 46.8525 21.7473 47.1167 22.1082C47.1716 22.1836 47.2251 22.2575 47.2785 22.333C47.3884 22.4882 47.4923 22.6347 47.6022 22.7663C47.9035 23.1301 48.0372 23.6108 47.9911 24.1594C47.9525 24.6224 47.7952 25.0424 47.5235 25.4092L47.424 25.5452C47.2978 25.7197 47.1672 25.8987 47.0083 26.0762C46.7515 26.366 46.4843 26.647 46.2275 26.9206L46.03 27.1292C45.938 27.2268 45.8415 27.3229 45.7465 27.4176C45.5416 27.6202 45.3486 27.811 45.2239 28.0136C45.1244 28.1718 45.016 28.2975 44.921 28.4084C44.8572 28.4824 44.7963 28.5519 44.7622 28.6066C44.4237 29.1568 44.2856 29.7099 44.342 30.3C44.3643 30.5381 44.3673 30.7644 44.3702 30.9833V31.0306C44.3732 31.1918 44.391 31.2258 44.394 31.2303C44.5914 31.5157 44.6122 31.81 44.6241 31.986C44.6419 32.2507 44.6716 32.4119 44.728 32.545C44.8587 32.8556 44.927 33.1766 44.9329 33.499C45.0992 33.9426 45.0977 34.3745 45.0977 34.7294V34.8655C45.1036 35.7218 44.7429 36.4184 44.054 36.8813C43.6962 37.1224 43.3266 37.3191 42.9599 37.467C42.8842 37.498 42.81 37.5291 42.7342 37.5616C42.3601 37.7213 41.937 37.9018 41.4189 37.9284C41.2185 37.9388 41.1428 37.9757 41.1042 38.0023C40.8607 38.1709 40.6054 38.2257 40.4361 38.2641C40.4035 38.2715 40.3708 38.2774 40.3396 38.2863C40.16 38.3336 39.9655 38.4194 39.7606 38.5081C39.6419 38.5599 39.5231 38.6132 39.4029 38.6605C39.0569 38.798 38.7704 39.042 38.5284 39.4059C38.4987 39.4488 38.4646 39.5271 38.429 39.6085C38.3518 39.7815 38.2538 40.0004 38.0801 40.2075C38.0445 40.3406 37.994 40.4485 37.9584 40.5284C37.9509 40.5447 37.9435 40.5594 37.9361 40.5757C37.9242 40.836 37.847 41.0741 37.7075 41.2752C37.6288 41.7204 37.4848 42.1212 37.3467 42.5102C37.274 42.7143 37.2042 42.9065 37.1478 43.0973C36.9711 43.6963 36.7009 44.1873 36.3461 44.557C35.8057 45.1205 35.0753 45.1235 34.7992 45.1235H34.7858C34.2499 45.1235 33.7525 45.0125 33.2879 44.8987C33.132 44.8602 32.9954 44.8055 32.887 44.7611C32.8143 44.7315 32.7237 44.6946 32.6866 44.6901C32.6287 44.6827 32.5723 44.6739 32.5144 44.665C32.4491 44.6546 32.3867 44.6443 32.3437 44.6428C31.9725 44.6251 31.6519 44.5186 31.4143 44.4269C31.1931 44.3426 30.9437 44.313 30.6913 44.3426C30.4909 44.3662 30.2089 44.3988 29.8882 44.3026C29.857 44.31 29.8184 44.3204 29.7962 44.3263C29.1518 44.5038 28.6501 44.7493 28.218 45.0983C27.6613 45.5494 27.1774 46.0005 26.7424 46.4767C26.5954 46.6379 26.4187 46.7887 26.2153 46.9248C26.1292 46.9825 26.0372 47.0683 25.9318 47.1674C25.8219 47.2709 25.6957 47.3877 25.5488 47.4986C25.1108 47.8255 24.6165 47.9911 24.1251 47.9911L24.1147 48ZM17.3628 42.732C17.4148 42.732 17.4682 42.735 17.5217 42.7394C17.6568 42.7512 17.7919 42.7571 17.927 42.7631C18.3649 42.7823 18.8622 42.8045 19.3818 43.0027C19.8376 43.1757 20.2785 43.4064 20.7714 43.7259C20.8902 43.8028 20.9822 43.8871 21.049 43.9492C21.0728 43.9714 21.104 44.0009 21.1173 44.0098L21.1975 44.0675C21.4692 44.2642 21.7512 44.4668 22.0199 44.7094C22.2545 44.9208 22.4772 45.1486 22.6746 45.3497C23.0027 45.6855 23.362 45.9872 23.742 46.2489C24.0048 46.4308 24.2795 46.4161 24.5571 46.209C24.6328 46.1528 24.7144 46.0759 24.802 45.9931C24.9401 45.8644 25.096 45.718 25.2905 45.5878C25.384 45.5257 25.4642 45.4577 25.5221 45.3941C26.0134 44.8558 26.5538 44.35 27.1759 43.8471C27.7801 43.3576 28.4912 43.0056 29.3493 42.7705C29.5542 42.7143 29.9327 42.6107 30.341 42.7542C30.3722 42.7542 30.4316 42.7468 30.4776 42.7409C31.0001 42.6788 31.5183 42.7409 31.9859 42.9198C32.173 42.9908 32.3006 43.0248 32.412 43.0293C32.5426 43.0352 32.6569 43.0544 32.7579 43.0692C32.7965 43.0751 32.8351 43.081 32.8752 43.087C33.129 43.118 33.3309 43.2008 33.4927 43.2659C33.5581 43.2925 33.6264 43.3206 33.6664 43.331C34.0509 43.4256 34.4221 43.5055 34.7814 43.5085C34.9877 43.5085 35.1124 43.4863 35.1525 43.4449C35.3262 43.2644 35.4658 42.9967 35.5682 42.6492C35.638 42.414 35.7181 42.1907 35.7953 41.9748C35.9289 41.6006 36.0566 41.2457 36.1026 40.9011C36.1264 40.7251 36.1947 40.5594 36.2956 40.4234C36.3164 40.1779 36.404 39.9841 36.4604 39.8629C36.4664 39.8481 36.4738 39.8348 36.4797 39.82C36.4901 39.5641 36.6163 39.3245 36.8241 39.1648C36.842 39.1441 36.8909 39.0332 36.9236 38.9592C36.98 38.832 37.0498 38.6753 37.1552 38.517C37.5813 37.8766 38.1306 37.4196 38.7853 37.1594C38.8877 37.1194 38.9872 37.0751 39.0881 37.0307C39.3301 36.9242 39.6048 36.8029 39.9121 36.7231C39.9655 36.7098 40.019 36.6979 40.0739 36.6846C40.1125 36.6757 40.163 36.6654 40.1897 36.6565C40.5029 36.448 40.8741 36.3356 41.3239 36.3134C41.551 36.3016 41.7975 36.1966 42.081 36.0753C42.1671 36.0383 42.2532 36.0028 42.3379 35.9673C42.6006 35.8623 42.8664 35.7189 43.1306 35.5414C43.3622 35.3861 43.4557 35.1968 43.4543 34.8862V34.7368C43.4543 34.4529 43.4543 34.2089 43.3771 34.0388C43.2835 33.8376 43.288 33.6528 43.2895 33.5729C43.2924 33.4413 43.2672 33.3141 43.2108 33.181C43.0505 32.7965 43.0059 32.4253 42.9851 32.1132C42.9851 32.0999 42.9837 32.0881 42.9822 32.0762C42.7654 31.7154 42.7313 31.3486 42.7268 31.0632V31.0143C42.7239 30.8191 42.7209 30.6357 42.7046 30.4642C42.614 29.5221 42.8352 28.614 43.3592 27.7636C43.4617 27.598 43.579 27.4619 43.6725 27.354C43.7349 27.2815 43.7927 27.2149 43.8254 27.1632C44.0526 26.7994 44.3346 26.5198 44.584 26.2729C44.6672 26.1915 44.7488 26.1087 44.829 26.0244L45.0279 25.8129C45.2773 25.5497 45.5342 25.2775 45.7747 25.0069C45.8801 24.8886 45.981 24.7481 46.0894 24.5987C46.125 24.5499 46.1606 24.4996 46.1978 24.4508C46.2898 24.3251 46.3373 24.1964 46.3522 24.0308C46.364 23.8858 46.3373 23.8178 46.3314 23.8089C46.1829 23.63 46.0567 23.4525 45.9335 23.2795C45.8845 23.2114 45.8355 23.1419 45.785 23.0739C45.6024 22.8254 45.3634 22.5932 45.1111 22.3477C45.0532 22.2915 44.9938 22.2353 44.9359 22.1777C44.8409 22.0845 44.7696 21.9928 44.7117 21.9174C44.6894 21.8878 44.6583 21.8493 44.6419 21.8301C44.3346 21.629 44.0718 21.3465 43.9041 21.03C43.8566 20.9413 43.7749 20.8422 43.6814 20.7268C43.5329 20.5464 43.3489 20.3216 43.2167 20.0288C43.1796 19.9459 43.1395 19.8646 43.0994 19.7833C42.9406 19.4623 42.7432 19.063 42.7075 18.5764C42.6719 18.0751 42.6734 17.5604 42.7135 17.0014C42.7342 16.71 42.7714 16.3965 42.899 16.0741C42.9258 16.0075 42.954 15.9513 42.9777 15.9084C43.0089 15.5609 43.092 15.2399 43.1677 14.953C43.1974 14.8377 43.2271 14.7238 43.2538 14.6084C43.2538 14.6025 43.2553 14.5552 43.2568 14.5212C43.2613 14.3481 43.2687 14.0849 43.4157 13.8157C43.4305 13.7891 43.432 13.6752 43.4335 13.5924C43.4335 13.5436 43.4335 13.4948 43.4364 13.4475C43.4364 13.3942 43.4364 13.3454 43.4379 13.2981C43.4394 13.2227 43.4409 13.1576 43.4379 13.1132C43.4023 12.6962 43.2954 12.6089 43.1603 12.5394C42.7788 12.3442 42.372 12.1667 41.9534 12.0129C41.5362 11.8606 41.1042 11.7023 40.693 11.6609C40.5341 11.6446 40.3767 11.5958 40.2372 11.5189C40.0531 11.4169 39.8349 11.3341 39.6048 11.2468C39.3895 11.1655 39.1668 11.0812 38.9382 10.9688C38.5344 10.7721 38.1736 10.5517 37.8337 10.2958C37.3764 9.94977 37.1047 9.48834 36.9251 9.1822C36.8999 9.13931 36.8731 9.09494 36.8479 9.05205C36.7098 8.82281 36.5539 8.56104 36.4426 8.24603C36.4144 8.16616 36.3862 8.0863 36.3565 8.00644C36.257 7.73135 36.1546 7.4474 36.0804 7.14569C36.0314 6.94308 35.9571 6.73602 35.8785 6.51714C35.8146 6.33819 35.7478 6.15332 35.6914 5.95662C35.6602 5.84866 35.638 5.74809 35.6187 5.65935C35.5979 5.56027 35.5741 5.44934 35.5489 5.40646C35.5014 5.32216 35.4554 5.2349 35.4108 5.14912C35.3262 4.98791 35.2549 4.84889 35.1674 4.74093C35.0842 4.63593 35.013 4.58564 34.817 4.56346C34.523 4.52796 34.2098 4.58416 33.8461 4.64924C33.6175 4.68917 33.3814 4.73058 33.1305 4.75276C33.08 4.7572 32.9806 4.79565 32.8841 4.83263C32.6926 4.90509 32.455 4.99679 32.1596 5.01601C32.1388 5.02045 32.118 5.02637 32.0972 5.0308C32.0601 5.03968 32.0215 5.05003 31.9844 5.05743C31.8998 5.07517 31.8018 5.10623 31.6994 5.13877C31.4292 5.22307 31.0922 5.33103 30.6928 5.3118C30.6023 5.30737 30.482 5.32216 30.3558 5.33695L30.2267 5.35173C29.6789 5.41089 29.1325 5.32068 28.558 5.07517C28.3888 5.0027 28.2433 4.91988 28.1141 4.84594C28.0265 4.79565 27.9449 4.74833 27.8721 4.71579C27.6895 4.63149 27.5173 4.52353 27.3436 4.38451C27.2278 4.29133 27.118 4.19372 27.0066 4.09611C26.8404 3.9497 26.683 3.81216 26.5256 3.70863C26.4113 3.6332 26.3311 3.55038 26.2822 3.50158C26.1753 3.39361 26.0713 3.28269 25.9659 3.17325C25.7433 2.93958 25.5339 2.71774 25.3127 2.52843C25.2118 2.44118 25.1138 2.34948 25.0173 2.25927C24.8807 2.1306 24.7516 2.00932 24.6254 1.92059C24.609 1.91171 24.5927 1.90432 24.5764 1.89545C24.4903 1.85404 24.3596 1.79044 24.2305 1.68396C24.2023 1.66769 24.0939 1.6529 24.0048 1.64255C23.9662 1.66325 23.9276 1.68396 23.8875 1.70318C23.7628 1.76826 23.6441 1.82889 23.5876 1.88361C23.4021 2.067 23.2031 2.21638 23.028 2.34948C22.9389 2.41751 22.8498 2.48407 22.7637 2.55505C22.6865 2.61865 22.6078 2.7133 22.5158 2.82126C22.4074 2.94993 22.2857 3.09487 22.1298 3.23389C22.066 3.29009 21.9991 3.34333 21.9323 3.39509C21.873 3.44094 21.818 3.48383 21.7869 3.51637C21.3281 4.00442 20.859 4.36528 20.3498 4.61966L20.3231 4.63297C19.9994 4.79565 19.6016 4.99383 19.1295 5.06038C18.6054 5.30737 18.0027 5.3754 17.3851 5.2556L17.1698 5.21271C16.916 5.16243 16.6755 5.1151 16.435 5.07813C16.3756 5.06926 16.3162 5.06186 16.2568 5.05595C16.089 5.03672 15.8975 5.01306 15.6941 4.95538C15.228 4.82227 14.7425 4.74093 14.2304 4.65515C14.0032 4.6167 13.7761 4.57825 13.5504 4.53536C13.3604 4.49986 13.0961 4.47472 12.912 4.56494C12.6567 4.68917 12.4756 4.92876 12.3598 5.29553L12.3494 5.32955C12.3167 5.44195 12.2588 5.63865 12.103 5.82648C12.0569 6.03057 11.9976 6.22135 11.9426 6.39587C11.8966 6.54376 11.8521 6.68278 11.8224 6.81293C11.7452 7.14569 11.6398 7.45331 11.5373 7.75058C11.4497 8.00644 11.3666 8.2475 11.3087 8.48561C11.2775 8.61724 11.2226 8.71485 11.1899 8.77105C11.1023 8.97662 10.991 9.13931 10.899 9.27389C10.85 9.34488 10.8039 9.41291 10.7757 9.46467C10.5189 9.95864 10.2042 10.3299 9.81225 10.6005L9.70091 10.6789C9.53612 10.7957 9.34758 10.9273 9.1338 11.0383C9.06551 11.0738 8.99722 11.1107 8.92893 11.1477C8.62459 11.3134 8.28017 11.4997 7.87339 11.587C7.47998 11.6727 7.05836 11.791 6.62041 11.9419C6.4289 12.007 6.23887 12.0632 6.05479 12.1179C5.60644 12.251 5.18334 12.3767 4.84782 12.6074C4.66225 12.7346 4.49301 13.0807 4.50489 13.202C4.56575 13.5806 4.64295 13.9725 4.7157 14.3511L4.75133 14.536C4.77953 14.6809 4.82407 14.8362 4.87009 14.9989C4.92799 15.2 4.98589 15.4085 5.02746 15.6363C5.05567 15.7945 5.0809 15.9528 5.10614 16.111C5.15216 16.4053 5.19522 16.6849 5.26648 16.9496C5.48025 17.7615 5.34961 18.6312 4.86861 19.6073C4.32971 20.7017 3.48795 21.5077 2.73675 22.151C2.54673 22.3122 2.37452 22.5311 2.19043 22.7618C2.13105 22.8373 2.07166 22.9127 2.0108 22.9866C1.97665 23.0281 1.94251 23.068 1.90836 23.1094C1.83116 23.1996 1.75693 23.2854 1.7213 23.3534C1.59511 23.5886 1.6159 23.8755 1.65895 24.3236L1.67528 24.4893C1.67528 24.4893 1.67974 24.5085 1.69013 24.5292C1.82226 24.8043 2.05385 25.0646 2.29732 25.3382C2.37303 25.4239 2.45023 25.5097 2.52446 25.5955C2.67589 25.773 2.85849 25.9445 3.05 26.1264C3.25487 26.3202 3.46717 26.5198 3.66758 26.7491C3.73439 26.8245 3.8012 26.8999 3.868 26.9754C4.12335 27.2608 4.38761 27.5566 4.62217 27.9086C4.85228 28.2532 4.98441 28.6111 5.10169 28.9261C5.14326 29.037 5.18334 29.1464 5.22936 29.2559C5.34664 29.5369 5.34664 29.8075 5.34664 30.0057C5.34664 30.0678 5.34664 30.1255 5.3511 30.164C5.39118 30.5588 5.3021 30.8931 5.22936 31.1608C5.20858 31.2362 5.18779 31.3116 5.17295 31.387C5.13732 31.5586 5.10763 31.7361 5.07793 31.9224C5.02004 32.2788 4.96065 32.6471 4.84337 33.0301C4.79141 33.2017 4.75727 33.3999 4.72163 33.6099C4.66967 33.9116 4.61178 34.2532 4.48262 34.5919C4.39354 34.8256 4.57912 35.2279 4.73797 35.3284C4.93245 35.4512 5.18334 35.6005 5.40306 35.6582C5.6198 35.7144 5.82022 35.7839 6.0147 35.852C6.31459 35.957 6.5729 36.0457 6.82083 36.0635C7.1311 36.0856 7.42208 36.1951 7.66704 36.3814C7.90457 36.4066 8.12577 36.4761 8.32322 36.59C8.42863 36.6506 8.53551 36.7112 8.64092 36.7704C8.87994 36.905 9.12786 37.044 9.37282 37.1993C9.41142 37.2244 9.4515 37.2481 9.4901 37.2717C9.77662 37.4477 10.1344 37.6681 10.4001 38.0497L10.4135 38.0689C10.7861 38.6043 11.2078 39.2077 11.3933 39.9679C11.4156 40.0122 11.4423 40.067 11.4631 40.132C11.4928 40.2208 11.5284 40.3095 11.5626 40.3997C11.6635 40.6644 11.7793 40.9632 11.8224 41.3033C11.8372 41.4157 11.8862 41.5503 11.9441 41.7056C12.0094 41.8801 12.0851 42.0872 12.1297 42.3209C12.2381 42.4658 12.3138 42.6359 12.3613 42.8385C12.3657 42.8459 12.3954 42.8991 12.4177 42.9376L12.4414 42.979C12.6968 43.433 12.9907 43.5765 13.491 43.4863L13.6796 43.4523C14.1116 43.3739 14.557 43.2925 15.0276 43.26C15.0305 43.26 15.0335 43.26 15.0365 43.26C15.4225 43.0381 15.8174 42.9908 16.1232 42.9746C16.4142 42.9598 16.6072 42.9213 16.766 42.8503C16.9456 42.769 17.1461 42.729 17.3613 42.729L17.3628 42.732ZM14.9682 43.3044H14.9667C14.9667 43.3044 14.9667 43.3044 14.9682 43.3044ZM9.91469 40.6526C9.91469 40.6526 9.91469 40.6526 9.91469 40.6541C9.91469 40.6541 9.91469 40.6541 9.91469 40.6526ZM37.8247 40.4485C37.8247 40.4485 37.8233 40.4485 37.8218 40.45C37.8218 40.45 37.8233 40.45 37.8247 40.4485ZM36.4812 39.8969C36.4812 39.8969 36.4812 39.9013 36.4812 39.9043C36.4812 39.9013 36.4812 39.8998 36.4812 39.8969ZM44.8602 33.3555C44.8602 33.3555 44.8602 33.3585 44.8616 33.3599C44.8616 33.3599 44.8616 33.357 44.8602 33.3555ZM40.8577 10.0474C40.8577 10.0474 40.8592 10.0474 40.8607 10.0474C40.8607 10.0474 40.8592 10.0474 40.8577 10.0474ZM11.2122 8.72224C11.2122 8.72224 11.2122 8.7252 11.2107 8.72668C11.2107 8.72668 11.2107 8.72372 11.2122 8.72224ZM10.9613 4.69065C10.9613 4.69065 10.9583 4.6936 10.9554 4.6936C10.9569 4.6936 10.9583 4.69065 10.9613 4.69065ZM25.2712 0.434251C25.2712 0.434251 25.2712 0.434251 25.2726 0.434251C25.2726 0.434251 25.2726 0.434251 25.2712 0.434251Z" fill="#B6B6B6"/>
</g>
</svg>
