<svg width="51" height="52" viewBox="0 0 51 52" fill="none" xmlns="http://www.w3.org/2000/svg">
<g id="Group 215">
<path id="Vector" d="M46.1447 50.1876C44.7464 50.1876 43.3481 50.189 41.9483 50.1876C41.1079 50.1862 40.8268 49.9094 40.8183 49.0817C40.8136 48.6852 40.6125 48.4864 40.215 48.4855C39.8615 48.4855 39.5037 48.5139 39.1531 48.4812C36.4728 48.2271 33.9289 48.9014 31.3792 49.58C29.5351 50.0698 27.6768 50.5084 25.8271 50.9755C25.6156 51.0294 25.4154 51.0351 25.1996 50.9939C19.3493 49.8739 13.4976 48.758 7.64595 47.6394C6.97731 47.5116 6.71893 47.1169 6.88645 46.4526C7.3748 44.519 8.59568 43.2712 10.4838 42.6849C10.7876 42.5912 11.0119 42.4677 11.2064 42.2079C12.7665 40.1352 15.3786 39.2721 17.8786 39.9919C18.3712 40.1338 18.8624 40.2843 19.3408 40.4674C19.6205 40.5739 19.7369 40.5143 19.8604 40.2431C20.7022 38.3948 22.1999 37.5742 24.2272 37.7886C25.8981 37.966 27.5732 38.1038 29.2455 38.2727C29.5493 38.3039 29.7495 38.1421 29.9639 37.993C30.9519 37.3088 32.0124 36.8176 33.2233 36.6685C35.2363 36.4229 37.0066 36.9695 38.5356 38.2869C39.031 38.7142 39.4768 39.1997 39.9452 39.6582C40.0333 39.7448 40.1213 39.8329 40.215 39.9138C40.3669 40.0472 40.5585 40.0316 40.7175 39.9734C40.8808 39.9138 40.8055 39.7278 40.8155 39.5958C40.8268 39.4552 40.8112 39.3119 40.8211 39.1699C40.8595 38.6361 41.1647 38.3238 41.7042 38.3039C42.2521 38.2855 42.8015 38.2982 43.3509 38.2982C45.7231 38.2982 48.0953 38.3096 50.4675 38.2883C50.892 38.284 50.9999 38.4104 50.9928 38.8221C50.9729 39.9663 50.9913 39.9663 49.867 39.9663C47.5828 39.9663 45.2986 39.9748 43.0159 39.9592C42.6212 39.9564 42.4679 40.0344 42.4722 40.4759C42.4949 42.9944 42.492 45.5142 42.4722 48.0326C42.4693 48.4429 42.5999 48.5309 42.9847 48.5281C45.4633 48.5124 47.942 48.5281 50.4206 48.511C50.8352 48.5082 51.0098 48.5735 50.997 49.0491C50.9658 50.1876 50.9913 50.189 49.8627 50.189C48.6234 50.189 47.3841 50.189 46.1447 50.189V50.1876ZM37.7576 46.816C38.8592 46.816 39.6216 46.799 40.3825 46.8231C40.7388 46.8344 40.8297 46.7081 40.8254 46.3688C40.8098 44.9492 40.8084 43.5296 40.8254 42.1114C40.8297 41.7635 40.726 41.6187 40.3782 41.6698C39.8118 41.755 39.4044 41.4995 39.0296 41.0949C38.537 40.5625 38.0245 40.0415 37.4808 39.5617C36.2358 38.4629 34.7849 38.0697 33.1424 38.3522C32.1302 38.5254 31.3082 39.0691 30.4905 39.6341C30.2109 39.8272 29.9312 39.999 29.5635 39.9592C28.6663 39.8641 27.7677 39.7789 26.8691 39.6994C25.776 39.6015 24.6843 39.4936 23.5897 39.4283C22.6755 39.3743 21.9955 39.8059 21.5185 40.5739C21.3567 40.8337 21.3226 41.0055 21.7258 41.0651C24.7695 41.5194 27.8103 41.9935 30.8511 42.4563C31.5325 42.56 31.534 42.5529 31.4417 43.2527C31.4161 43.4458 31.3565 43.6374 31.3551 43.8305C31.3523 44.1641 31.1847 44.1883 30.9108 44.1428C30.0561 43.9995 29.1958 43.8873 28.3427 43.7397C27.8273 43.6502 27.3503 43.6715 26.8464 43.8703C25.1684 44.5318 23.4719 45.1465 21.7854 45.7839C21.4816 45.8989 21.192 45.933 20.857 45.8634C18.0688 45.2942 15.2793 44.7206 12.4812 44.2025C11.0431 43.9356 9.8776 44.4835 9.01589 45.6604C8.67802 46.1204 8.71067 46.1686 9.26148 46.2737C14.5595 47.2802 19.8561 48.2853 25.1528 49.2989C25.3685 49.3401 25.563 49.3387 25.776 49.2847C27.5761 48.8304 29.3719 48.3648 31.1791 47.9418C33.459 47.4094 35.6793 46.4952 37.7576 46.8174V46.816ZM16.158 41.3746C15.1984 41.4058 14.3097 41.6642 13.5218 42.2278C13.3983 42.3158 13.1839 42.3868 13.218 42.5571C13.252 42.7317 13.482 42.692 13.6226 42.7204C16.0317 43.2087 18.4422 43.6843 20.8527 44.1656C21.0273 44.201 21.1892 44.2337 21.3695 44.1656C22.1446 43.8674 22.9254 43.5821 23.7033 43.2896C23.7842 43.2598 23.9006 43.2314 23.8992 43.1377C23.8964 43.0227 23.7686 43.0625 23.6934 43.044C23.5557 43.0114 23.4166 42.9816 23.276 42.9631C21.4873 42.7246 19.7071 42.4521 18.0177 41.7692C17.4229 41.5293 16.8011 41.3973 16.1566 41.3746H16.158Z" fill="#B6B6B6"/>
<path id="Vector_2" d="M4.82759 0.820219C6.22592 0.820219 7.62425 0.8188 9.024 0.820219C9.89991 0.820219 10.1711 1.08995 10.1796 1.9545C10.1834 2.33212 10.376 2.52188 10.7574 2.52377C10.7744 2.52377 10.7928 2.52377 10.8099 2.52377C13.8635 2.74523 16.8248 2.27959 19.7493 1.4051C21.4911 0.884102 23.2799 0.520679 25.0402 0.0564614C25.442 -0.0500104 25.8125 0.0138727 26.1887 0.0862735C31.9012 1.17513 37.6138 2.26824 43.325 3.36561C44.0404 3.50331 44.2818 3.88377 44.1001 4.58506C43.6004 6.51433 42.3766 7.75792 40.4829 8.33287C40.1947 8.42089 39.9874 8.54298 39.8043 8.78431C38.1632 10.9478 35.4858 11.7826 32.885 10.9549C32.4634 10.8215 32.0404 10.6923 31.6287 10.5347C31.3746 10.4382 31.261 10.4964 31.1446 10.7434C30.2318 12.6798 28.761 13.4535 26.6344 13.2064C25.0005 13.0176 23.3594 12.897 21.7211 12.7365C21.4613 12.711 21.2825 12.843 21.0965 12.9765C19.9338 13.8112 18.6547 14.3436 17.2166 14.3989C15.4066 14.4685 13.7996 13.9092 12.4382 12.7039C11.9342 12.2581 11.4743 11.7641 10.9916 11.2942C10.8794 11.1849 10.7886 11.0344 10.6168 11.016C10.3826 10.9918 10.1313 10.9592 10.1782 11.3368C10.1923 11.4589 10.1824 11.5852 10.1782 11.7087C10.1611 12.3774 9.86157 12.7053 9.20855 12.7067C6.26993 12.7138 3.3313 12.7067 0.392682 12.7153C0.0846231 12.7153 0.0136419 12.6059 0.00796342 12.3163C-0.0218487 11.0415 -0.031786 11.0415 1.21322 11.0415C3.47894 11.0415 5.74608 11.033 8.0118 11.05C8.39368 11.0529 8.52855 10.9691 8.52571 10.556C8.50583 8.01913 8.50725 5.48227 8.52571 2.94682C8.52855 2.56068 8.39652 2.47976 8.03878 2.48118C5.56011 2.49538 3.08145 2.48828 0.602786 2.48828C0.212863 2.48828 0.0169544 2.30278 0.0150615 1.93179C0.0122223 1.19074 0.378012 0.820219 1.11243 0.820219C2.35176 0.820219 3.5911 0.820219 4.83043 0.820219H4.82759ZM13.2289 4.19183C12.1245 4.19183 11.3621 4.2046 10.6012 4.18615C10.2846 4.17763 10.1682 4.26281 10.1725 4.60068C10.1895 6.03734 10.1923 7.47542 10.1725 8.91208C10.1668 9.28118 10.3088 9.38339 10.6353 9.33938C11.1776 9.26698 11.5793 9.49128 11.9427 9.88594C12.4226 10.4069 12.9237 10.9109 13.449 11.3865C14.711 12.5293 16.1874 12.9481 17.8697 12.6528C18.8804 12.4768 19.7024 11.9302 20.5201 11.368C20.8012 11.175 21.0823 11.006 21.45 11.0529C21.9412 11.1153 22.4352 11.1579 22.9292 11.2019C24.3914 11.3325 25.8551 11.4674 27.3187 11.5838C28.2074 11.6548 28.903 11.2843 29.4055 10.5588C29.7179 10.1088 29.6753 10.0208 29.1486 9.93989C26.1248 9.47425 23.101 9.01003 20.0772 8.54439C19.6655 8.48098 19.489 8.24817 19.5477 7.84594C19.5817 7.6188 19.6399 7.39166 19.647 7.1631C19.657 6.8664 19.7847 6.81813 20.0531 6.86356C20.9432 7.01262 21.8375 7.12903 22.7276 7.27667C23.206 7.35617 23.649 7.34339 24.1203 7.15742C25.8139 6.48878 27.526 5.86698 29.2295 5.22105C29.5361 5.10465 29.8258 5.08193 30.1579 5.15007C32.9291 5.71508 35.7016 6.28009 38.4812 6.8011C39.9406 7.07366 41.1203 6.53421 41.9934 5.33888C42.3142 4.8988 42.2872 4.84343 41.7747 4.74548C36.4951 3.74039 31.2156 2.74097 25.9374 1.72878C25.6478 1.67341 25.3837 1.68193 25.1055 1.75291C23.3239 2.20719 21.5493 2.68844 19.7578 3.09588C17.4935 3.6112 15.2888 4.5297 13.2303 4.19325L13.2289 4.19183ZM34.7902 9.63041C35.8095 9.62757 36.9977 9.21588 37.6209 8.67216C37.6976 8.60544 37.8211 8.55149 37.787 8.42657C37.7614 8.33003 37.6422 8.35133 37.5613 8.32861C37.4761 8.30448 37.3909 8.27892 37.3043 8.26189C35.3637 7.87149 33.4089 7.53788 31.4853 7.07366C30.3311 6.79542 29.2693 6.81529 28.2173 7.37178C28.0157 7.47826 27.7801 7.51943 27.5742 7.6188C27.4067 7.69972 27.1015 7.67984 27.1129 7.88711C27.1199 8.0092 27.4507 8.00778 27.6339 8.02765C29.6085 8.25195 31.5392 8.65513 33.3989 9.3763C33.8646 9.55659 34.3615 9.6006 34.7888 9.62899L34.7902 9.63041Z" fill="#B6B6B6"/>
<path id="Vector_3" d="M34.8318 21.6191C34.7779 22.9067 34.9298 24.4882 34.7466 26.0625C34.3051 29.8742 32.4369 32.7844 29.1689 34.7634C28.1425 35.3852 27.0352 35.8736 25.9634 36.4201C25.7022 36.5536 25.4339 36.6146 25.15 36.4684C23.6281 35.6791 22.014 35.0544 20.6512 33.9812C18.1072 31.9767 16.6251 29.3674 16.2532 26.1378C16.0743 24.5819 16.1879 23.0189 16.1666 21.4587C16.1481 20.0575 16.1595 18.6549 16.1637 17.2538C16.1652 16.4503 16.4477 16.1592 17.2469 16.1535C19.8959 16.1337 22.447 15.6084 24.903 14.626C25.309 14.4642 25.661 14.4528 26.0713 14.6161C28.5613 15.6113 31.1465 16.1365 33.831 16.155C34.5238 16.1592 34.8247 16.4758 34.829 17.1785C34.8361 18.5627 34.8304 19.9468 34.8304 21.6191H34.8318ZM33.1666 22.1529C33.1666 20.7432 33.1723 19.5905 33.1652 18.4377C33.1609 17.752 33.2702 17.8074 32.5519 17.762C30.2393 17.6172 28.0077 17.1203 25.8427 16.304C25.6355 16.2259 25.4453 16.189 25.2295 16.2728C23.0035 17.1388 20.698 17.6413 18.3145 17.762C17.9269 17.7819 17.8176 17.9153 17.8219 18.3043C17.8417 20.5558 17.8091 22.8073 17.8389 25.0589C17.873 27.6965 18.8596 29.9466 20.6938 31.8361C22.0098 33.1919 23.7232 33.8946 25.3601 34.7265C25.5134 34.8046 25.6326 34.7364 25.7576 34.6725C26.6093 34.2396 27.4867 33.852 28.3044 33.3622C31.0201 31.7368 32.6257 29.3447 33.0757 26.1974C33.2802 24.7692 33.1112 23.3283 33.168 22.1529H33.1666Z" fill="#B6B6B6"/>
<path id="Vector_4" d="M44.1623 25.4817C44.1282 29.83 42.8051 33.7325 40.1107 37.1552C39.7529 37.6109 39.743 37.6152 39.3128 37.2347C39.0502 37.0019 38.5973 36.8273 38.5831 36.5164C38.5704 36.2566 38.9395 35.9784 39.1382 35.7086C41.6112 32.3527 42.7526 28.5793 42.4843 24.4283C42.2003 20.0403 40.4499 16.2868 37.2955 13.2104C36.8768 12.8016 36.8739 12.8044 37.2586 12.3686C37.7441 11.8187 38.25 11.8121 38.7762 12.3487C41.7972 15.4322 43.5305 19.1345 44.0615 23.4119C44.114 23.8335 44.1367 24.2608 44.1594 24.6853C44.1736 24.9507 44.1623 25.2176 44.1623 25.4831V25.4817Z" fill="#B6B6B6"/>
<path id="Vector_5" d="M6.80753 25.5567C6.87709 21.1416 8.20302 17.2391 10.9117 13.8249C11.2495 13.399 11.2609 13.3962 11.6726 13.7624C11.9352 13.9967 12.3682 14.1642 12.415 14.4808C12.4591 14.7718 12.063 15.016 11.8642 15.2843C6.86005 22.0701 7.42364 31.194 13.2427 37.3282C13.5266 37.6277 13.4954 37.7739 13.2214 38.0408C12.3682 38.8727 12.3781 38.8869 11.5732 37.9755C8.42732 34.4109 6.88561 30.2315 6.80469 25.5567H6.80753Z" fill="#B6B6B6"/>
<path id="Vector_6" d="M5.93622 5.89514C5.38825 5.89514 5.11426 5.61359 5.11426 5.05047C5.11426 4.48735 5.39487 4.21289 5.9561 4.22709C6.51732 4.24128 6.79131 4.52284 6.77806 5.07176C6.76481 5.62068 6.4842 5.89514 5.93622 5.89514Z" fill="#B6B6B6"/>
<path id="Vector_7" d="M45.883 45.9442C45.883 46.5017 45.6062 46.7804 45.0525 46.7804C44.4989 46.7804 44.2206 46.5031 44.2178 45.9485C44.215 45.3939 44.4918 45.1152 45.0483 45.1123C45.6048 45.1095 45.883 45.3868 45.883 45.9442Z" fill="#B6B6B6"/>
<path id="Vector_8" d="M25.4702 31.4465C22.3641 31.4295 19.796 28.9977 19.5802 25.8674C19.3701 22.8181 21.5889 20.0981 24.6397 19.6353C25.8166 19.4564 26.9239 19.6566 28.0042 20.1179C28.3236 20.2542 28.467 20.3962 28.2271 20.7355C28.0127 21.0378 27.9091 21.4779 27.628 21.6554C27.3455 21.8357 26.9991 21.4694 26.6684 21.3771C24.3828 20.7326 21.9623 22.1111 21.3646 24.4137C20.7641 26.7263 22.1951 29.1254 24.4963 29.6621C26.8401 30.21 29.1513 28.7563 29.6709 26.4239C29.7347 26.1357 29.6325 25.7425 29.8611 25.5821C30.0556 25.4458 30.4048 25.5253 30.6859 25.5239C31.4667 25.5196 31.4667 25.5224 31.3489 26.3444C30.9215 29.2901 28.4187 31.4636 25.4702 31.4465Z" fill="#B6B6B6"/>
<path id="Vector_9" d="M25.4721 28.0365C25.218 28.0152 25.0121 27.8902 24.8318 27.7085C24.2455 27.1194 23.6663 26.5217 23.0644 25.9482C22.8358 25.731 22.8614 25.5876 23.0814 25.4002C23.3895 25.1376 23.6152 24.6393 23.9715 24.618C24.3037 24.5981 24.5436 25.0879 24.819 25.3576C25.5033 26.0291 25.499 26.0348 26.1592 25.3718C27.3346 24.195 28.5143 23.0238 29.6784 21.837C29.9084 21.6013 30.0475 21.5616 30.3045 21.8199C31.1747 22.6916 31.1861 22.6802 30.3343 23.532C28.9842 24.8835 27.6342 26.235 26.2855 27.5893C26.0569 27.8178 25.8256 28.0322 25.4692 28.035L25.4721 28.0365Z" fill="#B6B6B6"/>
</g>
</svg>
