<svg width="51" height="49" viewBox="0 0 51 49" fill="none" xmlns="http://www.w3.org/2000/svg">
<g id="Group 215">
<path id="Vector" d="M22.2167 5.37359C21.6515 5.07806 21.0864 4.78253 20.5266 4.48182C19.0268 3.67467 17.5323 2.85192 16.1075 1.92019C15.4848 1.50964 14.8942 1.0576 14.2876 0.615884C14.2244 0.568568 14.1293 0.510621 14.183 0.417173C14.2205 0.349674 14.3157 0.376356 14.3845 0.392441C15.4111 0.623259 16.4377 0.864499 17.4697 1.08493C18.2742 1.25697 19.0842 1.38214 19.8833 1.55935C21.0264 1.81178 22.2127 1.94464 23.2636 2.50913C24.3885 3.11579 25.1566 3.97546 25.2699 5.28941C25.3143 5.78476 25.2105 6.25829 25.0961 6.73176C25.0472 6.91904 25.0143 7.08558 25.1881 7.25347C26.5522 8.54437 27.2304 10.1955 27.7808 11.924C28.5907 14.4932 29.0875 17.1281 29.6638 19.7479C29.7101 19.9671 29.6654 20.3211 29.9089 20.3644C30.1524 20.4077 30.2341 20.0643 30.3626 19.8723C30.8871 19.0941 31.2108 18.2208 31.5451 17.3527C31.6367 17.1136 31.5797 16.9256 31.4432 16.7215C30.6665 15.5647 30.1553 14.3055 30.0161 12.9184C29.8968 11.7086 30.2377 10.6478 31.0598 9.73083C31.8286 8.87604 32.8388 8.38761 33.849 7.88877C36.0396 6.8036 38.1726 5.62425 40.0904 4.10997C40.8309 3.52597 41.5398 2.92092 42.059 2.12703C42.1126 2.04921 42.1819 1.98192 42.2512 1.91463C42.4005 1.78012 42.4956 1.83286 42.5209 2.0102C42.5818 2.42228 42.6692 2.82933 42.6665 3.2462C42.651 5.59632 42.6621 7.94662 42.6043 10.2965C42.5823 11.2187 42.3749 12.1345 42.3212 13.0565C42.2261 14.6192 41.6236 15.991 40.6616 17.2041C39.8493 18.2358 38.8318 19.042 37.4366 19.2361C36.7205 19.3356 36.0269 19.2321 35.3716 18.9464C34.9594 18.7665 34.5687 18.5503 34.1672 18.3496C33.8872 18.2123 33.7826 18.0032 33.7794 17.6905C33.7512 16.3354 34.2253 15.1556 35.059 14.098C36.037 12.8589 37.0466 11.6409 38.0035 10.3861C39.1528 8.88243 40.2705 7.35769 40.9235 5.56414C40.9613 5.46537 40.9937 5.36657 40.9786 5.24662C40.8715 5.41788 40.7696 5.59439 40.6572 5.76562C39.2815 7.85147 37.7792 9.8479 36.1239 11.7339C34.9064 13.1225 33.9687 14.6797 33.1788 16.3316C32.6253 17.4901 31.9397 18.5903 31.4338 19.7752C30.7878 21.2978 30.0414 22.7833 29.718 24.4174C29.4767 25.6509 29.2724 26.895 29.0682 28.1339C29.0295 28.3734 28.7999 28.6376 28.947 28.8366C29.1151 29.0618 29.4648 29.085 29.7453 29.1441C31.3488 29.4882 32.866 30.0818 34.2972 30.8364C35.9714 31.7228 37.5866 32.7235 39.0467 33.9317C39.6792 34.4569 39.9711 35.1988 40.3057 35.9098C40.337 35.9829 40.4159 36.072 40.3359 36.1392C40.2347 36.222 40.1666 36.1017 40.0927 36.0491C39.0484 35.2918 37.9987 34.5397 36.8847 33.8862C36.2828 33.5331 35.6543 33.2111 35.0417 32.8788C34.9942 32.8524 34.9359 32.8468 34.8563 32.8619C35.1663 33.2757 35.5456 33.6221 35.8343 34.0409C36.1178 34.4544 36.3853 34.8783 36.5996 35.3331C36.7773 35.7094 36.6705 35.8338 36.2463 35.8675C35.4774 35.9302 34.8961 35.6762 34.5083 35.0119C34.4402 34.8916 34.3828 34.7505 34.2188 34.7129C34.1017 34.7903 34.1753 34.8846 34.1959 34.9681C34.2475 35.1873 34.299 35.4065 34.2922 35.6358C34.2854 35.8702 34.2003 35.9114 34.0052 35.7694C33.6571 35.5118 33.2983 35.2645 32.9556 35.0017C32.6971 34.8072 32.4378 34.7481 32.1088 34.8189C30.3044 35.1927 28.5052 35.5874 26.7111 36.0081C26.674 36.0183 26.6421 36.0233 26.605 36.0283C26.4406 36.0532 26.2491 36.151 26.1175 36.0199C25.9859 35.8783 26.1037 35.6967 26.1735 35.5564C26.3833 35.094 26.3971 34.5938 26.5382 34.0997C26.3471 34.1401 26.2826 34.2752 26.1919 34.3788C25.6098 35.0525 24.8859 35.5167 24.0206 35.7403C23.357 35.9131 23.2148 35.7819 23.4518 35.1946C24.1415 33.4795 25.4044 32.4299 27.2929 32.1505C27.5688 32.1106 27.8445 32.0916 28.1203 32.0621C28.1256 32.0621 28.131 32.0466 28.1738 31.9843C27.3593 31.7236 26.5428 31.786 25.7369 31.8328C24.8462 31.8843 24.1593 32.3696 23.583 32.9808C23.0279 33.5712 22.6734 34.288 22.4299 35.0576C22.6274 34.0323 23.1263 33.108 23.4457 32.0888C23.2704 32.1553 23.2325 32.275 23.1683 32.3683C22.3657 33.5251 21.5578 34.6871 20.7659 35.8492C20.6374 36.036 20.5205 36.0821 20.2877 36.0337C19.5309 35.8672 18.7522 35.81 17.9789 35.7371C17.587 35.7033 17.2165 35.6227 16.8572 35.4536C16.6142 35.3426 16.5674 35.2068 16.6802 34.973C16.879 34.5626 17.1411 34.1891 17.4401 33.8472C18.6844 32.4171 20.0759 31.1495 21.762 30.233C23.1714 29.4657 24.6487 28.8762 26.3023 28.8558C26.6415 28.8528 26.9811 28.7925 27.3202 28.8051C27.654 28.8177 27.7875 28.6675 27.8159 28.381C27.8949 27.6468 28.048 26.9287 28.2064 26.2106C28.4579 25.0293 28.7254 23.8481 28.9928 22.6669C29.0528 22.4068 29.0492 22.1514 29.0191 21.8907C28.8445 20.2376 28.6008 18.5997 28.283 16.9665C27.837 14.6655 27.253 12.4 26.3345 10.2314C26.0318 9.51544 25.66 8.83555 25.2243 8.19172C25.0564 7.94048 24.924 7.92398 24.6737 8.10472C24.3115 8.37854 23.9493 8.65756 23.4927 8.79005C22.6113 9.03961 21.8392 8.7792 21.1001 8.34703C20.1867 7.81471 19.4177 7.09574 18.6165 6.42866C17.7995 5.75106 16.897 5.18234 16.0692 4.52551C14.6193 3.37996 13.5156 1.96571 12.7475 0.303527C12.622 0.0369358 12.7285 -0.0301111 12.972 0.0131765C13.3055 0.0726883 13.6069 0.173679 13.8488 0.461879C14.1485 0.818205 14.5442 1.08657 14.9347 1.34969C16.1114 2.12866 17.2935 2.89725 18.4596 3.68658C19.1877 4.1812 20.0126 4.46802 20.7999 4.83276C21.2596 5.03901 21.714 5.25044 22.1737 5.4619C22.1898 5.43074 22.2059 5.39958 22.2167 5.36838L22.2167 5.37359Z" fill="#B6B6B6"/>
<path id="Ellipse 12" d="M8.42073 9.29408C7.13247 11.236 6.14142 13.4164 5.52489 15.791C2.4737 27.5427 9.75052 39.6009 21.7781 42.7237C33.8058 45.8465 46.0295 38.8514 49.0807 27.0997C49.6973 24.7251 49.8921 22.3381 49.7113 20.0147" stroke="#B6B6B6" stroke-width="1.5"/>
</g>
</svg>
