<svg width="49" height="48" viewBox="0 0 49 48" fill="none" xmlns="http://www.w3.org/2000/svg">
<g id="Group 213">
<path id="Vector" d="M0.00157458 23.9919C-0.145498 11.1968 10.362 -0.0269965 24.0206 4.87764e-05C37.3252 0.0270941 47.9498 10.6424 48.0016 23.9568C48.0533 37.3334 37.2108 48.0731 23.8382 48C10.4083 47.9243 -0.148221 36.8601 0.00157458 23.9919ZM46.2912 23.9973C46.3593 11.7945 36.3938 1.78504 24.1704 1.69579C11.7701 1.60113 1.92441 11.5565 1.66839 23.4916C1.39876 36.2056 11.7319 46.3395 24.0397 46.3043C36.342 46.2664 46.3674 36.2191 46.2939 23.9973H46.2912Z" fill="#B6B6B6"/>
<path id="Vector_2" d="M19.9926 8.89844C23.0974 8.89844 26.2023 8.89844 29.3071 8.89844C29.476 8.89844 29.6476 8.90114 29.811 8.9336C30.1433 8.9985 30.3149 9.21757 30.3339 9.55023C30.3448 9.72873 30.3366 9.90993 30.3366 10.0911C30.3366 13.2013 30.3366 16.3116 30.3366 19.4191C30.3339 23.6652 27.4633 27.6489 23.427 28.9823C23.0811 29.0959 23.0402 29.2554 23.0974 29.5692C23.781 33.2744 25.8646 35.8518 29.3262 37.3393C29.4923 37.4096 29.6585 37.4826 29.811 37.58C30.1977 37.8288 30.3121 38.248 30.116 38.6402C29.9281 39.0161 29.4951 39.1946 29.0784 39.0269C27.9317 38.5698 26.8369 38.0154 25.8618 37.2473C23.2064 35.154 21.7302 32.4143 21.368 29.0688C21.338 28.7903 21.3244 28.5063 21.3135 28.2277C21.2999 27.9194 21.4224 27.7274 21.7574 27.6598C25.6004 26.8836 27.7356 24.4306 28.5663 20.7145C28.7706 19.795 28.7052 18.8511 28.7243 17.9208C28.7624 15.9951 28.7352 14.0668 28.7379 12.1412C28.7379 11.6922 28.6426 11.2433 28.727 10.7916C28.7543 10.6375 28.6589 10.5644 28.5064 10.5644C28.4056 10.5644 28.3021 10.559 28.2014 10.559C22.7243 10.559 17.2499 10.559 11.7729 10.559C11.3044 10.559 11.3044 10.5617 11.3017 11.0296C11.3017 13.7774 11.2935 16.5279 11.3017 19.2757C11.3153 22.9512 13.7311 26.3075 17.1655 27.4434C17.4569 27.5408 17.7511 27.6057 18.0561 27.6327C18.5927 27.6787 18.6962 27.7923 18.6798 28.3386C18.5954 30.8944 17.7729 33.1851 16.2041 35.2135C14.8396 36.9769 13.0666 38.1723 11.0212 38.9999C10.5091 39.2054 10.0597 39.0323 9.86093 38.5753C9.68117 38.1615 9.86093 37.7206 10.3403 37.4961C11.1492 37.1202 11.9744 36.7794 12.7043 36.2575C15.0738 34.5644 16.4901 32.2872 16.934 29.4069C16.9667 29.1932 16.8823 29.0986 16.6943 29.0364C15.0711 28.4874 13.6657 27.5949 12.4919 26.3427C10.8387 24.5766 9.89089 22.4941 9.69479 20.0817C9.5804 18.6861 9.65666 17.2906 9.64577 15.8924C9.63215 13.8883 9.64032 11.8815 9.64304 9.87477C9.64304 9.13644 9.87999 8.89844 10.6126 8.89844C12.1814 8.89844 13.7529 8.89844 15.3217 8.89844C16.8795 8.89844 18.4374 8.89844 19.9953 8.89844H19.9926Z" fill="#B6B6B6"/>
<path id="Vector_3" d="M34.2913 32.6897C34.2913 30.9994 34.324 29.309 34.2804 27.6187C34.2423 26.1096 34.3185 24.6004 34.294 23.0913C34.2722 21.8797 34.7162 20.8249 35.5768 19.9946C36.3639 19.2347 36.6989 18.3665 36.6826 17.2793C36.6445 14.856 36.669 12.4355 36.669 10.0122C36.669 9.89861 36.6663 9.78502 36.6771 9.67414C36.7207 9.2333 37.0557 8.91146 37.4751 8.90064C37.8946 8.88982 38.2759 9.23059 38.3249 9.66332C38.3358 9.7742 38.3331 9.88779 38.3331 10.0014C38.3331 12.4814 38.3222 14.9588 38.3385 17.4388C38.3467 18.856 37.8782 20.0595 36.8515 21.044C36.2441 21.6255 35.9254 22.334 35.9472 23.1887C35.9745 24.2921 35.8873 25.3956 35.9064 26.499C35.9772 30.3043 35.9309 34.1123 35.95 37.9175C35.95 38.0636 35.95 38.2123 35.9254 38.3557C35.8519 38.8209 35.4978 39.1157 35.0648 39.0913C34.6018 39.0616 34.2968 38.7343 34.2968 38.234C34.294 36.3868 34.2968 34.5369 34.2968 32.6897H34.2913Z" fill="#B6B6B6"/>
<path id="Vector_4" d="M34.2889 13.014C34.2889 11.9673 34.2889 10.918 34.2889 9.87132C34.2889 9.25739 34.5966 8.90039 35.1168 8.90039C35.588 8.90039 35.9366 9.28443 35.9421 9.8632C35.953 11.2047 35.9475 12.5434 35.9475 13.8848C35.9475 14.6069 35.9475 15.3264 35.9475 16.0485C35.9475 16.2405 35.9393 16.4325 35.8767 16.6164C35.7623 16.9599 35.3728 17.2168 35.0378 17.1735C34.6021 17.1195 34.2943 16.8165 34.2916 16.3946C34.2834 15.2696 34.2889 14.1418 34.2889 13.0167H34.2861L34.2889 13.014Z" fill="#B6B6B6"/>
<path id="Vector_5" d="M33.5234 13.0438C33.5234 14.1012 33.5234 15.1614 33.5234 16.2189C33.5234 16.8004 33.1911 17.1844 32.7063 17.179C32.2215 17.1736 31.8674 16.7841 31.8647 16.2243C31.8593 14.1067 31.8647 11.9917 31.8647 9.87407C31.8647 9.49002 31.99 9.16278 32.355 8.97887C32.6328 8.83823 32.9051 8.88151 33.1557 9.04919C33.4226 9.22769 33.5234 9.48732 33.5234 9.80105C33.5179 10.8829 33.5234 11.962 33.5234 13.0438Z" fill="#B6B6B6"/>
</g>
</svg>
