<svg width="52" height="52" viewBox="0 0 52 52" fill="none" xmlns="http://www.w3.org/2000/svg">
<g id="Group 214">
<path id="Vector" d="M50.999 25.5011C50.999 26.6721 51.0076 27.843 50.999 29.0097C50.9903 30.2671 50.3857 30.9411 49.1462 31.1053C48.4984 31.1918 47.8506 31.1442 47.2071 31.1399C46.7623 31.1399 46.5161 31.3041 46.3736 31.7319C45.8942 33.1837 45.4019 34.6312 44.6375 35.9707C44.4388 36.3207 44.4993 36.6188 44.7843 36.8954C45.2075 37.3102 45.6437 37.7207 46.041 38.1571C46.935 39.1466 46.935 40.1274 46.0108 41.0694C44.374 42.7416 42.7199 44.3965 41.0486 46.0342C40.1287 46.9372 39.2563 46.9502 38.2759 46.1076C37.7707 45.6755 37.3042 45.1959 36.8378 44.7249C36.5528 44.4354 36.2721 44.4052 35.9179 44.5953C34.523 45.3471 33.0891 46.0169 31.5517 46.4317C31.245 46.5138 31.1112 46.7169 31.1112 47.028C31.1112 47.6027 31.1112 48.1817 31.1112 48.7564C31.1112 50.1131 30.4849 50.8693 29.1461 50.973C28.2522 51.0421 27.3495 50.9687 26.4512 50.9644C24.957 50.9644 23.4627 50.9687 21.9727 50.9644C20.6987 50.9557 19.9731 50.2341 19.9472 48.9508C19.9343 48.3372 19.9256 47.728 19.9472 47.1144C19.9602 46.7471 19.8004 46.5354 19.4678 46.436C17.9304 45.965 16.4534 45.3601 15.0454 44.5867C14.7388 44.4181 14.4926 44.5089 14.2681 44.7336C13.8448 45.1527 13.4302 45.5761 13.0027 45.9866C11.9662 46.9761 10.9167 46.9891 9.93206 45.965C8.44641 44.4225 6.91758 42.9231 5.38011 41.428C4.89209 40.9571 4.40407 40.4731 4.37816 39.704C4.35656 39.125 4.51204 38.641 4.92232 38.2392C5.35851 37.8114 5.79039 37.3793 6.23954 36.9602C6.5764 36.6448 6.64118 36.3121 6.42092 35.8973C5.68242 34.5145 4.9871 33.1146 4.61137 31.5763C4.52068 31.1961 4.23564 31.088 3.87718 31.0794C3.19482 31.0578 2.51678 31.1658 1.8301 31.0881C0.832472 30.9714 0.193299 30.3708 0.0723743 29.3597C-0.113332 27.8128 0.124199 26.2702 0.0637368 24.7233C0.0291869 23.8807 0.0075932 23.0338 0.0075932 22.1869C0.0075932 20.6314 0.733142 19.8968 2.27925 19.8839C2.78454 19.8795 3.28984 19.8579 3.79081 19.8882C4.2486 19.9184 4.48181 19.7283 4.61137 19.3005C4.96551 18.1296 5.38443 16.9802 5.94586 15.887C6.04519 15.6969 6.14452 15.5024 6.25681 15.3166C6.68005 14.6037 6.67141 14.5389 6.0711 13.9426C5.71265 13.5883 5.34124 13.2469 4.99142 12.8883C4.09312 11.9766 4.07153 10.9655 4.98278 10.0321C6.37774 8.6019 7.80292 7.20624 9.21947 5.79329C9.5261 5.48651 9.82409 5.1754 10.1523 4.89454C11.029 4.15566 11.8323 4.14702 12.7263 4.89022C13.2229 5.30071 13.685 5.76305 14.1428 6.21675C14.4624 6.53217 14.7863 6.56242 15.1664 6.35069C16.4447 5.63774 17.7878 5.07602 19.1914 4.66985C19.7399 4.50998 20.0077 4.22912 19.9559 3.62851C19.9127 3.07543 19.9343 2.5137 19.9515 1.9563C19.9818 0.824219 20.6684 0.0464501 21.7913 0.0291663C24.2573 -0.00972211 26.7233 -0.00972211 29.185 0.0291663C30.2863 0.0464501 31.0637 0.936563 31.1112 2.10754C31.1371 2.71679 31.1328 3.33036 31.1241 3.94393C31.1198 4.3285 31.2969 4.54886 31.651 4.65689C33.1712 5.11059 34.6309 5.71984 36.0259 6.48032C36.3368 6.64884 36.5744 6.56674 36.7989 6.34205C37.2308 5.90996 37.6627 5.47354 38.0989 5.04577C39.0533 4.11245 40.1071 4.09949 41.0443 5.02849C42.707 6.67476 44.3611 8.32968 46.0108 9.98892C46.9393 10.9222 46.9437 11.9982 46.041 12.9488C45.6308 13.3765 45.2075 13.7957 44.78 14.2062C44.5122 14.4654 44.4474 14.7463 44.6331 15.079C45.4019 16.4703 46.0065 17.9308 46.4643 19.4518C46.5636 19.7758 46.7752 19.9011 47.1078 19.9011C47.8074 19.9055 48.5157 19.8795 49.2067 19.966C50.4418 20.1172 51.0033 20.8042 51.0076 22.04C51.0076 23.1937 51.0076 24.3431 51.0076 25.4968L50.999 25.5011ZM25.6004 49.6119C26.732 49.6119 27.8678 49.6205 28.9993 49.6119C29.6255 49.6033 29.7594 49.465 29.7724 48.8471C29.7853 48.2551 29.7594 47.6588 29.7896 47.0669C29.8328 46.1984 30.2258 45.5157 31.0637 45.2348C32.6486 44.6947 34.1861 44.0465 35.6977 43.3249C36.4794 42.9533 37.2049 43.1175 37.8225 43.7311C38.2414 44.1502 38.6517 44.5823 39.0836 44.9885C39.5932 45.4724 39.7573 45.4681 40.2496 44.9799C41.0659 44.1675 41.8821 43.3552 42.6854 42.5342C43.493 41.7132 44.3567 40.9527 45.1341 40.1015C45.4321 39.7731 45.4148 39.5139 45.1255 39.2287C44.7066 38.8096 44.2833 38.3904 43.8687 37.967C43.0784 37.1633 42.9315 36.4719 43.4196 35.4781C44.1149 34.0695 44.672 32.6133 45.1816 31.1313C45.4926 30.2239 46.1361 29.7615 47.0862 29.7356C47.6606 29.7226 48.2393 29.7356 48.8137 29.727C49.4528 29.714 49.6299 29.5455 49.6342 28.9319C49.6515 26.6288 49.6386 24.3258 49.5522 22.0227C49.5349 21.5388 49.3233 21.3487 48.8482 21.3616C48.2566 21.3789 47.6606 21.3746 47.0689 21.3616C46.0497 21.34 45.3803 20.882 45.0996 19.9141C44.659 18.4061 44.089 16.9543 43.3591 15.5629C42.9143 14.7203 43.0698 13.9642 43.7132 13.2944C44.0976 12.8926 44.5079 12.508 44.8923 12.1062C45.4451 11.5272 45.4494 11.3759 44.8923 10.8185C43.3332 9.25004 41.7698 7.68154 40.2021 6.11736C39.7573 5.67231 39.5068 5.67231 39.0576 6.10008C38.5912 6.54946 38.1464 7.02044 37.6627 7.45253C37.0365 8.00561 36.3239 8.13524 35.5638 7.74204C34.104 6.99019 32.5882 6.38526 31.0248 5.88835C30.282 5.6507 29.8501 5.10627 29.7378 4.30689C29.6385 3.6069 29.6946 2.90691 29.686 2.20692C29.686 1.72297 29.5132 1.47236 28.9907 1.47668C26.706 1.48532 24.4214 1.48532 22.1368 1.47668C21.6358 1.47668 21.4069 1.70569 21.4026 2.19395C21.4026 2.76864 21.4113 3.34764 21.394 3.92233C21.3638 4.87293 20.9535 5.60317 20.0206 5.90996C18.4788 6.41551 16.9802 7.00316 15.5335 7.74636C14.7518 8.1482 13.996 8.00561 13.3611 7.37476C12.9293 6.94266 12.5017 6.50193 12.0655 6.07415C11.5948 5.61614 11.4004 5.60317 10.934 6.06551C9.34039 7.6513 7.75109 9.24572 6.17044 10.8445C5.71697 11.3025 5.71697 11.5747 6.1618 12.05C6.60231 12.5253 7.07737 12.966 7.51356 13.4457C8.04909 14.0333 8.18729 14.7074 7.82451 15.4376C7.11624 16.8765 6.50298 18.3499 6.04951 19.8925C5.76016 20.882 5.06916 21.34 4.03266 21.3746C3.45827 21.3919 2.87956 21.3876 2.30516 21.3789C1.79555 21.3746 1.53643 21.6079 1.53643 22.1264C1.53643 24.4295 1.53643 26.7325 1.52779 29.0399C1.52779 29.5541 1.78691 29.7486 2.26629 29.7442C2.85796 29.7442 3.45395 29.7399 4.04562 29.7442C5.08211 29.7572 5.7472 30.2368 6.04519 31.2263C6.47707 32.6782 7.04282 34.0738 7.70791 35.4349C8.20024 36.446 8.12251 37.0077 7.37104 37.8417C6.99963 38.2565 6.60231 38.6497 6.21794 39.0559C5.71265 39.5916 5.71697 39.7558 6.21794 40.2657C6.38205 40.4342 6.55048 40.5984 6.7146 40.7626C8.10523 42.1712 9.48723 43.5885 10.8865 44.9885C11.4004 45.5027 11.5905 45.4897 12.1044 44.9971C12.5579 44.5607 12.9897 44.1027 13.4475 43.6706C14.0305 43.1262 14.7129 42.9663 15.4341 43.3293C16.9673 44.0984 18.5436 44.7379 20.1718 45.2607C20.9146 45.4984 21.3206 46.0774 21.4156 46.8724C21.4976 47.5551 21.489 48.2378 21.4804 48.9205C21.4717 49.4218 21.692 49.6421 22.193 49.6378C23.3245 49.6249 24.4603 49.6378 25.5918 49.6378L25.6004 49.6119Z" fill="#B6B6B6"/>
<path id="Vector_2" d="M25.2293 31.6977C25.7907 32.052 26.3996 32.1471 26.9611 32.3675C27.3282 32.51 27.7039 32.644 28.0667 32.7996C28.3517 32.9205 28.546 33.1236 28.5331 33.4563C28.5201 33.7977 28.2826 33.9792 27.9976 34.0613C27.2893 34.2687 26.5724 34.4458 25.8641 34.636C25.7821 34.6576 25.7 34.6921 25.592 34.7267C25.6741 34.9773 25.8857 34.9989 26.0541 35.0594C26.6803 35.2884 27.3109 35.5001 27.9328 35.7378C28.2524 35.8631 28.6022 36.0359 28.6022 36.4335C28.6022 36.831 28.2653 37.0038 27.9371 37.1291C27.583 37.2631 27.2288 37.4013 26.8661 37.5007C26.4903 37.6044 26.3564 37.8162 26.3651 38.205C26.3867 39.3587 26.3824 40.5081 26.378 41.6618C26.378 42.4439 26.1621 42.6729 25.3761 42.6426C19.4465 42.4352 14.7909 39.8902 11.4136 35.0032C9.32333 31.9786 8.44663 28.5737 8.52868 24.9484C8.62802 20.554 10.295 16.7646 13.3268 13.5844C13.5557 13.3424 13.8148 13.0702 14.2165 13.2041C14.7693 13.3899 14.8772 13.9171 14.4454 14.414C13.7587 15.2004 13.0634 15.9782 12.5019 16.8639C9.95819 20.8867 9.13763 25.2336 10.5412 29.7792C12.4112 35.8372 16.5659 39.5661 22.7935 40.9099C23.3333 41.0266 23.9034 41.0136 24.4519 41.0957C24.8276 41.1519 24.9269 41.005 24.9226 40.6593C24.9097 39.6871 24.9356 38.7149 24.9097 37.7427C24.8924 37.1162 24.9917 36.589 25.7086 36.3427C25.5057 36.0791 25.2422 36.0575 25.0263 35.9754C24.3871 35.7335 23.735 35.5261 23.1001 35.2711C22.7546 35.1329 22.3443 34.9816 22.3832 34.5063C22.4221 34.0613 22.8021 33.9187 23.1822 33.8193C23.7393 33.6767 24.2964 33.5341 24.8492 33.3786C25.0133 33.331 25.2077 33.3267 25.3675 33.0934C24.6765 32.8428 24.0027 32.6051 23.3376 32.3588C22.9058 32.1989 22.3443 32.0909 22.3487 31.5162C22.3573 30.9675 22.9101 30.8811 23.3247 30.7212C24.0934 30.4274 24.8622 30.1422 25.7561 29.8095C24.8147 29.4768 23.9855 29.1916 23.1649 28.8891C22.3573 28.591 22.3098 28.5218 22.3141 27.6749C22.3271 26.1972 22.3789 24.7194 22.0593 23.2676C21.7052 21.6515 21.066 20.1522 20.1591 18.7652C19.5199 17.7886 19.0664 16.7473 18.9541 15.5677C18.695 12.8714 19.7704 10.8017 22.0075 9.40169C26.1664 6.80048 31.5173 9.34551 32.1695 14.2022C32.3422 15.4942 32.096 16.743 31.4785 17.9139C30.9257 18.9639 30.2735 19.9621 29.846 21.0769C29.4055 22.2262 29.0816 23.3972 28.9563 24.6243C28.9477 24.7151 28.939 24.8058 28.9131 24.8922C28.8008 25.3114 28.5417 25.562 28.0883 25.4842C27.6737 25.4108 27.4707 25.1126 27.5052 24.7021C27.5743 23.8206 27.7471 22.9565 27.9889 22.1096C28.369 20.783 28.9218 19.5386 29.6905 18.3936C30.4377 17.2788 30.9127 16.0991 30.8523 14.7121C30.7572 12.4177 28.6281 10.1276 26.3435 9.90724C24.6419 9.74304 23.126 10.1233 21.8693 11.3202C20.09 13.0183 19.7358 15.7535 21.1264 17.7886C22.3832 19.625 23.1735 21.6126 23.5061 23.8034C23.6615 24.8231 23.7091 25.8472 23.6616 26.8712C23.6356 27.4502 23.817 27.7527 24.3785 27.9385C25.4884 28.3101 26.5724 28.7508 27.665 29.1613C27.7644 29.2002 27.868 29.2391 27.963 29.2823C28.2524 29.4119 28.5072 29.5891 28.5158 29.9477C28.5288 30.3453 28.2308 30.5138 27.9241 30.6304C27.2202 30.8983 26.5033 31.1446 25.7907 31.3996C25.605 31.4644 25.4106 31.5076 25.2077 31.715L25.2293 31.6977Z" fill="#B6B6B6"/>
<path id="Vector_3" d="M41.3423 25.2858C41.3207 21.41 39.8437 18.0872 37.4425 15.123C37.2049 14.8292 36.9544 14.544 36.7126 14.2545C36.5096 14.0082 36.501 13.7749 36.7515 13.5459C36.9933 13.3255 37.2308 13.1699 37.5547 13.4249C38.3148 14.0168 38.9108 14.7687 39.4723 15.5335C42.8495 20.118 43.6053 25.1692 41.9771 30.5747C40.5044 35.4746 37.3215 38.9227 32.7394 41.1221C32.6271 41.1782 32.5105 41.2215 32.3895 41.269C31.9577 41.4332 31.5949 41.3338 31.3833 40.919C31.1587 40.4739 31.4265 40.1931 31.7806 39.9986C32.3032 39.7178 32.8516 39.4844 33.3699 39.2036C36.6651 37.4233 38.872 34.7012 40.241 31.2531C40.9881 29.3691 41.3207 27.4938 41.3336 25.2902L41.3423 25.2858Z" fill="#B6B6B6"/>
</g>
</svg>
