<svg width="87" height="42" viewBox="0 0 87 42" fill="none" xmlns="http://www.w3.org/2000/svg">
<g clip-path="url(#clip0_2884_547)">
<path fill-rule="evenodd" clip-rule="evenodd" d="M19.056 6.85254C24.2644 7.04544 28.1328 9.4085 30.6026 14.0244C30.9299 14.6375 31.2123 15.2817 31.4569 15.9327C31.7015 16.5872 31.6257 16.7663 31.0745 17.1728C28.4118 19.1225 25.5286 20.6519 22.4353 21.8059C20.3064 22.6016 18.1087 23.1321 15.8869 23.5627C14.4884 23.8348 13.0519 23.8968 11.6327 24.0553C10.9782 24.1276 10.8646 24.2999 11.2331 24.8303C12.9865 27.3346 15.3117 28.8985 18.436 29.1018C21.4707 29.2981 23.9578 28.1682 25.9867 25.9602C27.0236 24.8303 27.6643 23.4869 27.995 21.9954C28.0088 21.9265 28.0122 21.8576 28.0294 21.7887C28.2602 20.7656 28.4152 20.6244 29.4521 20.7346C30.1445 20.807 30.8265 20.9654 31.512 21.0929C31.8461 21.1549 31.9564 21.3443 31.8944 21.6957C31.016 26.9385 27.4576 31.0756 22.4456 32.3329C17.6024 33.5454 13.3654 32.4707 9.77949 28.9123C8.61174 27.7549 7.70579 26.4425 7.13397 24.9302C6.83773 24.1483 6.3348 23.9588 5.63553 23.9003C4.94315 23.8417 4.25077 23.7763 3.55839 23.6902C2.48709 23.5524 1.41924 23.3974 0.354829 23.2389C0.230821 23.2217 0.113701 23.1356 -0.00341797 23.0839C0.124035 23.0012 0.241155 22.8565 0.375497 22.8428C1.72581 22.6878 3.07957 22.5569 4.43334 22.4191C4.60557 22.4018 4.78814 22.4191 4.95693 22.3812C6.38647 22.0402 6.19013 22.1883 6.15568 20.9275C6.10745 19.0329 6.22113 17.1831 6.89629 15.3678C7.91936 12.6086 9.63481 10.435 12.0943 8.87801C14.1956 7.54837 16.5173 6.82843 19.0526 6.85598L19.056 6.85254ZM9.72437 19.8459C9.72437 19.9871 9.72437 20.1249 9.72437 20.2661C9.7416 21.551 9.97239 21.7439 11.2159 21.5097C11.2848 21.4959 11.3503 21.4649 11.4157 21.4511C13.9131 20.962 16.3933 20.3902 18.8218 19.6151C21.4914 18.7643 24.068 17.6964 26.4793 16.26C27.2888 15.7777 27.3577 15.4057 26.8066 14.6582C24.4745 11.5098 21.395 10.0492 17.4646 10.6486C13.0726 11.3169 9.67959 15.3471 9.72437 19.8493V19.8459Z" fill="#5BBBAF"/>
<path d="M34.5536 1H37.4437V32.1296H34.5536V1Z" fill="#838281"/>
<path d="M58.5148 24.675L60.9502 25.9565C60.151 27.5238 59.2278 28.7914 58.1806 29.7559C57.1335 30.7205 55.9554 31.4507 54.6464 31.9537C53.3374 32.4566 51.8562 32.708 50.2028 32.708C46.5376 32.708 43.6751 31.5058 41.6083 29.1049C39.5415 26.704 38.5081 23.9895 38.5081 20.9617C38.5081 18.1129 39.383 15.5742 41.1329 13.3455C43.3513 10.5105 46.3172 9.09473 50.0374 9.09473C53.7577 9.09473 56.9233 10.5484 59.2106 13.4488C60.8365 15.4984 61.6632 18.0578 61.6908 21.127H41.4808C41.5359 23.7346 42.3695 25.8738 43.9817 27.541C45.5938 29.2082 47.5848 30.0419 49.9547 30.0419C51.0984 30.0419 52.211 29.8421 53.2926 29.4459C54.3743 29.0498 55.294 28.5193 56.0518 27.8614C56.8097 27.2034 57.6295 26.1425 58.5113 24.675H58.5148ZM58.5148 18.6262C58.129 17.0864 57.5675 15.8532 56.8303 14.93C56.0932 14.0068 55.1183 13.2662 53.9058 12.7013C52.6933 12.1364 51.4187 11.8539 50.0822 11.8539C47.8776 11.8539 45.983 12.5635 44.3985 13.9793C43.2411 15.0127 42.3661 16.5594 41.7736 18.6227H58.5148V18.6262Z" fill="#838281"/>
<path d="M83.1099 9.66999H86V27.5651C86 30.717 85.7244 33.0215 85.1733 34.4821C84.4154 36.5454 83.103 38.1369 81.2291 39.2495C79.3586 40.3656 77.1058 40.9202 74.4775 40.9202C72.5519 40.9202 70.8193 40.648 69.2864 40.1038C67.75 39.5595 66.5031 38.8258 65.5385 37.9095C64.574 36.9898 63.6888 35.6498 62.8758 33.8827H66.0139C66.8682 35.3673 67.9705 36.4696 69.3208 37.1861C70.6711 37.9026 72.3452 38.2609 74.3432 38.2609C76.3411 38.2609 77.9773 37.8923 79.3345 37.1586C80.6917 36.4249 81.6597 35.5017 82.2384 34.3925C82.8171 33.2799 83.1064 31.4886 83.1064 29.0119V27.8545C82.0179 29.2324 80.6883 30.2864 79.1175 31.0236C77.5467 31.7608 75.8795 32.1293 74.1158 32.1293C72.049 32.1293 70.1062 31.6161 68.2874 30.593C66.4686 29.5665 65.0632 28.1886 64.0711 26.4525C63.079 24.7198 62.583 22.8115 62.583 20.7343C62.583 18.6572 63.0997 16.7178 64.1331 14.9231C65.1665 13.1285 66.5961 11.7058 68.4218 10.6621C70.2474 9.61487 72.173 9.09473 74.1985 9.09473C75.8795 9.09473 77.4468 9.44264 78.9005 10.1385C80.3541 10.8343 81.7561 11.9779 83.1064 13.5763V9.67343L83.1099 9.66999ZM74.5843 11.878C72.9481 11.878 71.4255 12.2742 70.0235 13.0664C68.6215 13.8587 67.5192 14.9507 66.7201 16.3492C65.9209 17.7443 65.5213 19.2565 65.5213 20.879C65.5213 23.3419 66.348 25.3778 67.9981 26.9899C69.6481 28.5985 71.7907 29.4046 74.4189 29.4046C77.0472 29.4046 79.2105 28.6054 80.8295 27.0105C82.4451 25.4156 83.2546 23.3144 83.2546 20.7136C83.2546 19.0223 82.8825 17.5101 82.1385 16.1839C81.3944 14.8577 80.3438 13.8071 78.9797 13.0354C77.6156 12.2638 76.1516 11.878 74.5843 11.878Z" fill="#838281"/>
</g>
<defs>
<clipPath id="clip0_2884_547">
<rect width="87" height="42" fill="white"/>
</clipPath>
</defs>
</svg>
